<svg width="1920" height="595" fill="none" xmlns="http://www.w3.org/2000/svg"><path d="m1811.21 61.755-.34.373 2.79-1.534.17-.171-2.62 1.332zm-28.84 21.757-.33.361 2.79-1.536.16-.157-2.62 1.332zm11.81-13.32-1.42 1.648 4.35-2.29 1.38-1.455-4.31 2.096zm-19.64 10.955 5.77-2.898-5.77 2.898zm5.77-2.898 2.31-2.546-5.74 2.665m-23.34 26.88-.32.362 2.78-1.533.16-.158-2.62 1.329zm11.81-13.309-1.41 1.635 4.35-2.288 1.36-1.436-4.3 2.09zm-40.64 35.053-.32.358 2.79-1.535.15-.153-2.62 1.33zm11.81-13.307-1.41 1.635 4.35-2.289 1.36-1.441-4.3 2.095zm11.53-13.578-2.32 2.773 5.76-2.898 2.3-2.54-5.74 2.665zm11.2-13.819-2.99 3.745c2.33-1.104 4.67-2.22 6.99-3.344l3.02-3.505c-2.34 1.045-4.68 2.08-7.02 3.105zm-63.36 62.442-.32.358 2.78-1.533.15-.154-2.61 1.329zm11.81-13.311-1.42 1.636 4.36-2.291 1.36-1.438-4.3 2.093zm11.52-13.566c-.77.929-1.55 1.852-2.33 2.775l5.77-2.898 2.3-2.545-5.74 2.668zm11.2-13.824-2.99 3.741a976.49 976.49 0 0 0 7-3.348l3.01-3.499a744.546 744.546 0 0 1-7.02 3.106zm10.92-14.13c-1.17 1.546-2.33 3.09-3.51 4.632 2.7-1.213 5.39-2.436 8.08-3.673l3.6-4.384a995.561 995.561 0 0 1-8.17 3.425zm-74.28 76.574-.32.352 2.79-1.533.15-.151-2.62 1.332zm11.81-13.315-1.42 1.64 4.35-2.288 1.37-1.445-4.3 2.093zm11.53-13.57c-.77.928-1.56 1.851-2.33 2.773l5.77-2.897 2.29-2.537-5.73 2.661zm11.19-13.821-2.99 3.751a976.49 976.49 0 0 0 7-3.348l3.02-3.51a919.271 919.271 0 0 1-7.03 3.107zm10.92-14.128a613.34 613.34 0 0 1-3.51 4.632c2.7-1.213 5.4-2.436 8.09-3.673l3.6-4.384c-2.72 1.154-5.45 2.294-8.18 3.425zm10.59-14.395c-1.3 1.809-2.6 3.617-3.92 5.42 1.8-.763 3.6-1.522 5.4-2.298l3.7-1.61c1.36-1.717 2.69-3.442 4.03-5.165a986.1 986.1 0 0 1-9.21 3.653zm-84.86 90.959-.32.359 2.78-1.535.16-.153-2.62 1.329zm11.8-13.302-1.41 1.634 4.35-2.289 1.36-1.435-4.3 2.09zm11.53-13.573-2.33 2.773 5.77-2.892 2.3-2.543-5.74 2.662zm11.2-13.824-2.99 3.745c2.33-1.104 4.67-2.223 7-3.348l3.01-3.502a799.966 799.966 0 0 1-7.02 3.105zm10.92-14.126c-1.17 1.545-2.33 3.094-3.51 4.635 2.7-1.21 5.39-2.436 8.08-3.673l3.6-4.387c-2.72 1.155-5.44 2.294-8.17 3.425zm10.58-14.395c-1.3 1.808-2.59 3.615-3.91 5.421 1.8-.765 3.6-1.522 5.39-2.298l3.71-1.61c1.35-1.717 2.69-3.443 4.03-5.167a860.968 860.968 0 0 1-9.22 3.654zm10.26-14.712c-1.4 2.06-2.81 4.124-4.24 6.178 3.35-1.338 6.7-2.693 10.04-4.073 1.47-1.96 2.92-3.928 4.37-5.897a916.509 916.509 0 0 1-10.17 3.792zm-95.12 105.674-.32.361 2.79-1.535.15-.155-2.62 1.329zm11.81-13.308-1.41 1.637 4.35-2.292 1.36-1.441-4.3 2.096zm11.53-13.569-2.34 2.777 5.77-2.899 2.3-2.54-5.73 2.662zm11.2-13.824-3 3.747c2.34-1.104 4.67-2.223 7-3.347l3.02-3.506a1263.49 1263.49 0 0 1-7.02 3.106zm10.91-14.126c-1.16 1.542-2.33 3.09-3.5 4.629 2.69-1.213 5.39-2.438 8.08-3.676 1.21-1.456 2.4-2.915 3.59-4.378-2.72 1.154-5.44 2.294-8.17 3.425zm10.58-14.395a583.854 583.854 0 0 1-3.91 5.42c1.8-.764 3.6-1.522 5.4-2.297l3.7-1.61c1.36-1.718 2.69-3.443 4.03-5.166a905.085 905.085 0 0 1-9.22 3.653zm10.26-14.713c-1.4 2.061-2.81 4.124-4.23 6.178 3.34-1.337 6.69-2.694 10.03-4.073 1.47-1.959 2.93-3.927 4.37-5.896a847.366 847.366 0 0 1-10.17 3.791zm9.9-15.025a773.502 773.502 0 0 1-4.46 6.882c3.64-1.364 7.28-2.75 10.9-4.162 1.57-2.193 3.11-4.39 4.64-6.589a909.127 909.127 0 0 1-11.08 3.869zm-84.01 96.595 5.77-2.898-5.77 2.898zm5.77-2.898 2.3-2.543-5.74 2.664m-23.34 26.889-.32.351 2.79-1.533.15-.151-2.62 1.333zm11.81-13.31-1.41 1.632 4.35-2.288 1.36-1.439-4.3 2.095zm22.73-27.398-2.99 3.747c2.33-1.104 4.66-2.224 6.99-3.345l3.02-3.508a830.956 830.956 0 0 1-7.02 3.106zm10.92-14.127c-1.17 1.545-2.34 3.097-3.52 4.636a824 824 0 0 0 8.09-3.677 575.78 575.78 0 0 0 3.6-4.384c-2.72 1.154-5.45 2.295-8.17 3.425zm10.58-14.395c-1.3 1.809-2.6 3.615-3.92 5.42 1.8-.763 3.6-1.521 5.4-2.297l3.7-1.608c1.36-1.719 2.7-3.444 4.03-5.168a859.318 859.318 0 0 1-9.21 3.653zm10.26-14.712c-1.4 2.059-2.81 4.123-4.24 6.177a841.19 841.19 0 0 0 10.03-4.073c1.48-1.96 2.93-3.928 4.38-5.897-3.39 1.288-6.78 2.546-10.17 3.793zm9.89-15.026a574.737 574.737 0 0 1-4.46 6.882c3.65-1.364 7.28-2.75 10.91-4.162 1.56-2.194 3.11-4.39 4.64-6.589a893.844 893.844 0 0 1-11.09 3.869zm9.53-15.363a557.9 557.9 0 0 1-4.61 7.561c3.92-1.372 7.83-2.769 11.74-4.195 1.63-2.412 3.23-4.831 4.82-7.253a934.172 934.172 0 0 1-11.95 3.887zm-114.54 136.061-.32.358 2.79-1.533.15-.154-2.62 1.329zm11.8-13.303-1.4 1.631 4.34-2.288 1.36-1.433-4.3 2.09zm11.53-13.57c-.76.923-1.55 1.842-2.32 2.762l5.77-2.895 2.29-2.534-5.74 2.667zm11.2-13.824-2.99 3.742c2.34-1.107 4.67-2.22 7-3.345l3.01-3.502a719.558 719.558 0 0 1-7.02 3.105zm10.92-14.129a575.336 575.336 0 0 1-3.51 4.631c2.7-1.212 5.4-2.437 8.09-3.674 1.2-1.457 2.4-2.919 3.59-4.38a1082.8 1082.8 0 0 1-8.17 3.423zm10.58-14.395a583.964 583.964 0 0 1-3.91 5.421c1.8-.765 3.6-1.522 5.39-2.298l3.71-1.61c1.36-1.717 2.69-3.443 4.03-5.166a905.085 905.085 0 0 1-9.22 3.653zm10.26-14.712c-1.4 2.06-2.81 4.124-4.24 6.178 3.35-1.338 6.7-2.693 10.04-4.073 1.47-1.96 2.93-3.928 4.37-5.897a847.414 847.414 0 0 1-10.17 3.792zm9.9-15.026a773.642 773.642 0 0 1-4.46 6.883c3.64-1.365 7.27-2.749 10.9-4.161 1.56-2.194 3.11-4.39 4.64-6.59a909.066 909.066 0 0 1-11.08 3.868zm9.52-15.362a557.712 557.712 0 0 1-4.61 7.559c3.92-1.37 7.84-2.768 11.74-4.194 1.63-2.414 3.24-4.831 4.82-7.253a871.657 871.657 0 0 1-11.95 3.888zm9.12-15.713c-1.53 2.741-3.1 5.479-4.69 8.215 4.19-1.362 8.37-2.751 12.55-4.174 1.67-2.629 3.31-5.26 4.94-7.895a928.306 928.306 0 0 1-12.8 3.854zm-123.65 151.773-.33.361 2.79-1.536.15-.154-2.61 1.329zm11.8-13.306-1.41 1.637 4.35-2.291 1.37-1.442-4.31 2.096zm11.53-13.569-2.33 2.771 5.77-2.898 2.29-2.534-5.73 2.661zm11.19-13.821-2.98 3.742c2.33-1.108 4.67-2.227 7-3.352l3.01-3.499a919.45 919.45 0 0 1-7.03 3.109zm10.92-14.129a613.34 613.34 0 0 1-3.51 4.632c2.7-1.213 5.4-2.436 8.09-3.673 1.21-1.459 2.4-2.922 3.6-4.384a1008.25 1008.25 0 0 1-8.18 3.425zm10.59-14.395c-1.3 1.809-2.6 3.614-3.92 5.42 1.8-.763 3.6-1.522 5.4-2.296l3.7-1.612c1.36-1.716 2.69-3.442 4.03-5.165a1005.8 1005.8 0 0 1-9.21 3.653zm10.25-14.712c-1.39 2.06-2.8 4.123-4.23 6.178a935.74 935.74 0 0 0 10.03-4.074c1.48-1.959 2.93-3.927 4.38-5.896a938.582 938.582 0 0 1-10.18 3.792zm9.9-15.026a617.911 617.911 0 0 1-4.46 6.883c3.64-1.365 7.28-2.751 10.91-4.163 1.56-2.193 3.1-4.39 4.63-6.589a838.7 838.7 0 0 1-11.08 3.869zm9.53-15.364a552.626 552.626 0 0 1-4.62 7.561c3.92-1.37 7.84-2.767 11.74-4.195a712.8 712.8 0 0 0 4.83-7.253 918.669 918.669 0 0 1-11.95 3.887zm9.12-15.712c-1.54 2.741-3.1 5.479-4.69 8.214 4.18-1.362 8.37-2.749 12.54-4.174 1.67-2.625 3.32-5.26 4.94-7.895a927.247 927.247 0 0 1-12.79 3.855zm8.68-16.085a590.72 590.72 0 0 1-4.7 8.859 870.37 870.37 0 0 0 13.34-4.109c1.69-2.835 3.35-5.678 4.98-8.519a807.546 807.546 0 0 1-13.62 3.769zM1004.61 0c61.55 38.538 122.88 73.64 183.27 102.304 134.11 63.642 287.9 64.8 436.06 25.388 5.87-11.425 11.28-22.89 16.17-34.378 3.64-8.561 8.93-22.393 15.68-40.055 5.82-15.23 12.73-33.302 20.59-53.259h4.9c-8.32 21.05-15.59 40.08-21.67 55.989-6.81 17.815-12.15 31.765-15.77 40.284-4.23 9.95-8.85 19.878-13.82 29.783 4.71-1.288 9.42-2.621 14.12-3.993 9.3-16.743 17.61-33.593 24.79-50.49 3.64-8.56 8.93-22.392 15.68-40.052 3.63-9.483 7.68-20.07 12.11-31.52h4.88a7560.436 7560.436 0 0 0-13.17 34.249c-6.8 17.814-12.14 31.766-15.76 40.285-6.49 15.262-13.89 30.49-22.09 45.627 4.45-1.332 8.9-2.702 13.34-4.108 13.04-21.894 24.4-44.02 33.84-66.22 3.64-8.56 8.93-22.393 15.68-40.053l3.74-9.78h4.87l-4.79 12.509c-6.81 17.814-12.14 31.766-15.77 40.285-8.7 20.46-19.01 40.856-30.76 61.068 4.19-1.362 8.37-2.751 12.54-4.174 17.09-26.887 31.66-54.182 43.32-81.594 2.77-6.518 6.5-16.1 11.1-28.095h4.87c-5.15 13.427-9.27 24.07-12.24 31.056-10.87 25.554-24.24 51.008-39.81 76.126 3.92-1.37 7.84-2.768 11.74-4.195 21.4-31.721 39.32-64.096 53.16-96.631.8-1.87 1.67-3.997 2.62-6.356h4.92a414.994 414.994 0 0 1-3.8 9.317c-13 30.548-29.56 60.952-49.18 90.811 3.64-1.365 7.27-2.75 10.9-4.162 22.41-31.426 41.44-63.578 56.52-95.966h5.1c-14.3 31.256-32.26 62.306-53.37 92.71 3.35-1.34 6.69-2.694 10.03-4.074 21.78-28.983 40.71-58.661 56.33-88.636h5.29c-14.71 28.684-32.44 57.107-52.76 84.924 1.8-.764 3.6-1.522 5.4-2.296l3.7-1.61C1778 54.552 1796.54 27.443 1812.37 0h5.48c-14.76 25.972-31.92 51.655-51.19 76.793 2.7-1.214 5.39-2.436 8.08-3.673 19.75-23.875 37.61-48.322 53.31-73.12h5.66c-14.42 23.117-30.7 45.942-48.63 68.294 2.34-1.107 4.67-2.22 7-3.345 18.35-21.203 35.22-42.91 50.41-64.948h5.89c-13.67 20.115-28.72 39.96-45.01 59.411l5.76-2.893c16.69-18.463 32.25-37.34 46.58-56.518h6.12c-12.48 16.962-25.93 33.692-40.26 50.119l4.35-2.291c14.74-15.643 28.68-31.61 41.75-47.829h6.35a813.767 813.767 0 0 1-34.34 40.407l2.79-1.533A861.52 861.52 0 0 0 1878.34 0h6.6a837.965 837.965 0 0 1-27.06 30.18l.82-.47A876.225 876.225 0 0 0 1887.64 0h6.9a870.236 870.236 0 0 1-11.58 12.395A905.95 905.95 0 0 0 1895.54.001H1920c-8.13 6.294-16.39 12.49-24.76 18.576a1027.628 1027.628 0 0 1-28.83 21.741c-9.42 7.37-19.02 14.605-28.77 21.698-9.45 7.395-19.08 14.65-28.86 21.763a1014.425 1014.425 0 0 1-28.87 21.769c-9.41 7.368-19.01 14.6-28.75 21.686-9.45 7.394-19.07 14.65-28.86 21.763a1029.707 1029.707 0 0 1-28.86 21.769c-9.42 7.368-19.01 14.6-28.76 21.686a1029.62 1029.62 0 0 1-28.86 21.766c-9.43 7.38-19.04 14.623-28.81 21.725-9.43 7.379-19.04 14.62-28.8 21.718a1015.917 1015.917 0 0 1-28.87 21.775 1009.686 1009.686 0 0 1-28.81 21.725 1025.014 1025.014 0 0 1-28.82 21.742c-9.46 7.401-19.1 14.665-28.89 21.784-9.42 7.367-19.01 14.6-28.75 21.686a1030.957 1030.957 0 0 1-28.88 21.778c-68.27 53.404-145.51 99.727-227.02 134.906-185.581 80.09-393.437 102.543-568.209 19.606-139.67-66.284-283.936-166.639-424.567-264.467C122.618 234.525 60.57 191.369 0 151.984v-6.551c61.204 39.741 123.909 83.352 187.354 127.489 140.561 97.777 284.756 198.085 424.009 264.17 173.819 82.486 380.714 60.082 565.517-19.676 31-13.377 61.37-28.379 90.86-44.757a1015.376 1015.376 0 0 1-60.74 28.66c-185.59 80.09-393.442 102.543-568.213 19.605C499.118 454.64 354.85 354.285 214.22 256.458 141.446 205.832 69.648 155.895 0 111.732v-6.53c70.278 44.494 142.735 94.888 216.18 145.98 140.561 97.777 284.756 198.085 424.009 264.171 173.819 82.484 380.711 60.082 565.521-19.676 31.01-13.381 61.38-28.388 90.88-44.77a1011.586 1011.586 0 0 1-60.77 28.672c-185.58 80.09-393.435 102.543-568.207 19.605-139.67-66.284-283.936-166.639-424.567-264.466C160.185 177.078 78.593 120.325 0 71.986v-6.522c79.228 48.66 161.477 105.871 245.006 163.979 140.561 97.777 284.757 198.085 424.009 264.17 173.819 82.485 380.715 60.083 565.525-19.676 30.99-13.374 61.35-28.373 90.83-44.745a1009.905 1009.905 0 0 1-60.72 28.647c-185.58 80.091-393.44 102.543-568.211 19.605-139.67-66.283-283.937-166.638-424.567-264.466C178.831 148.258 87.391 84.658 0 32.826v-6.471c88.027 52.11 180.123 116.159 273.832 181.348 140.562 97.777 284.756 198.085 424.009 264.17 173.82 82.486 380.709 60.083 565.519-19.675 31.01-13.384 61.39-28.389 90.89-44.773a1013.744 1013.744 0 0 1-60.78 28.675c-185.58 80.09-393.433 102.543-568.205 19.605-139.67-66.284-283.936-166.639-424.567-264.466C200.915 121.822 102.97 53.701 9.885 0H21.02C111.4 52.922 206.175 118.845 302.658 185.963c140.561 97.778 284.756 198.085 424.009 264.171 173.819 82.484 380.713 60.082 565.523-19.677 31.01-13.383 61.39-28.39 90.89-44.778a1011.36 1011.36 0 0 1-60.78 28.681c-185.58 80.09-393.438 102.543-568.209 19.605-139.67-66.283-283.937-166.639-424.568-264.466C242.777 109.153 157.416 49.775 75.433 0H86.05c79.357 48.706 161.751 106.012 245.433 164.224 140.56 97.777 284.756 198.085 424.008 264.17 173.82 82.485 380.718 60.083 565.518-19.676 31.01-13.379 61.38-28.385 90.88-44.766a1011.263 1011.263 0 0 1-60.76 28.668c-185.59 80.091-393.442 102.543-568.213 19.605-139.67-66.283-283.936-166.638-424.567-264.466C283.901 95.971 210.478 44.899 139.33 0h10.306c68.558 43.63 139.145 92.728 210.673 142.485 140.561 97.776 284.757 198.084 424.009 264.171 173.82 82.484 380.712 60.081 565.522-19.677 30.98-13.371 61.34-28.361 90.81-44.731a1010.42 1010.42 0 0 1-60.7 28.634c-185.58 80.09-393.437 102.543-568.207 19.606-139.671-66.285-283.937-166.64-424.568-264.467-62.676-43.6-124.629-86.692-185.106-126.02h10.057c57.918 37.905 117.134 79.093 177.01 120.744 140.561 97.778 284.755 198.085 424.008 264.172 173.82 82.484 380.716 60.082 565.526-19.677 31-13.38 61.37-28.382 90.86-44.764a1012.824 1012.824 0 0 1-60.75 28.667c-185.58 80.09-393.44 102.543-568.212 19.605-139.669-66.283-283.936-166.638-424.566-264.466C364.686 68.585 313.858 33.229 263.926.001h9.87c47.393 31.691 95.561 65.194 144.165 99.006 140.562 97.777 284.757 198.085 424.009 264.17 173.82 82.486 380.71 60.082 565.52-19.676 30.38-13.11 60.15-27.778 89.08-43.772l.16-.157a1014.104 1014.104 0 0 1-59.13 27.832c-185.58 80.09-393.43 102.543-568.205 19.605C729.724 280.725 585.458 180.37 444.828 82.542c-40.266-28.012-80.232-55.81-119.7-82.54h9.732c36.942 25.108 74.306 51.095 111.928 77.265 140.561 97.777 284.756 198.085 424.009 264.171 173.823 82.485 380.713 60.082 565.523-19.676 24.62-10.625 48.84-22.273 72.53-34.82l1.37-1.439a1010.47 1010.47 0 0 1-43.79 20.161c-185.58 80.09-393.44 102.543-568.21 19.605C758.551 258.985 614.284 158.63 473.654 60.803 444.196 40.31 414.896 19.933 385.837 0h9.643c26.542 18.246 53.269 36.839 80.133 55.527 140.561 97.777 284.757 198.085 424.009 264.17 173.818 82.485 380.718 60.083 565.518-19.676a1006.885 1006.885 0 0 0 55.74-26.121l2.3-2.543c-9.25 4.331-18.56 8.523-27.93 12.566-185.58 80.09-393.43 102.543-568.203 19.605C787.376 237.246 643.11 136.891 502.479 39.063 483.651 25.968 464.891 12.916 446.213 0h9.586a30067.06 30067.06 0 0 1 48.64 33.788C645 131.565 789.195 231.873 928.448 297.958c173.822 82.485 380.712 60.082 565.522-19.677a992.932 992.932 0 0 0 38.68-17.68l3.01-3.504c-3.85 1.719-7.71 3.415-11.58 5.088-185.58 80.09-393.44 102.543-568.208 19.604-139.67-66.283-283.936-166.638-424.567-264.465L506.392 0h9.551l17.322 12.048c140.561 97.777 284.756 198.085 424.009 264.171 173.816 82.485 380.716 60.082 565.526-19.676a999.29 999.29 0 0 0 21.33-9.511l3.6-4.381c-184.26 78.284-389.88 99.568-563.032 17.4C847.128 194.764 705.101 96.421 566.48.001h9.544C712.167 94.672 851.443 190.575 986.1 254.478c173.82 82.485 380.71 60.083 565.52-19.676l3.71-1.61c1.35-1.717 2.69-3.443 4.02-5.165-179.78 72.387-378.05 89.903-545.83 10.283C886.286 177.926 755.233 89.267 626.589.001h9.566C762.281 87.422 890.576 173.726 1014.93 232.74c169.36 80.372 370.12 61.154 551.26-13.666 1.48-1.961 2.93-3.929 4.38-5.898-175.05 66.534-365.9 80.426-528.22 3.397C925.453 161.095 805.336 81.754 686.828.001h9.615c115.945 79.824 233.283 156.888 347.307 211 163.69 77.678 356.71 62.323 532.99-6.337a688.74 688.74 0 0 0 4.64-6.59c-170.06 60.733-353.44 71.154-510.2-3.241C964.676 144.291 855.505 73.937 747.31.001h9.687c105.574 71.941 211.947 140.078 315.583 189.26 157.94 74.952 343.19 63.277 514.37.685 1.63-2.416 3.23-4.834 4.82-7.253-164.8 55.005-340.65 62.112-491.77-9.6-96-45.56-194.179-107.22-291.854-173.092h9.797C912.93 63.816 1008.27 123.323 1101.4 167.522c152.13 72.189 329.58 64.01 495.39 7.385 1.67-2.625 3.32-5.26 4.94-7.895-159.29 49.361-327.53 53.324-472.9-15.659C1043.47 110.843 956.395 57.607 869.48 0h9.936c84.151 55.507 168.354 106.646 250.814 145.782 146.22 69.389 315.84 64.517 476.03 13.75a576.9 576.9 0 0 0 4.99-8.519c-153.51 43.813-314.09 44.802-453.6-21.4C1083.15 94.254 1007.33 49.195 931.455 0h10.115c73.02 47.064 145.91 90.075 217.49 124.042 140.22 66.542 301.95 64.783 456.26 19.759 1.69-3.043 3.35-6.088 4.97-9.137-147.46 38.378-300.28 36.572-433.81-26.79C1123.1 77.794 1058.76 40.694 994.257 0h10.353z" fill="#F1F1F1"/></svg>