<svg width="243" height="264" fill="none" xmlns="http://www.w3.org/2000/svg"><g clip-path="url(#a)" fill-rule="evenodd" clip-rule="evenodd" fill="#02C2C5"><path d="M130.819 114.56c-.642.722-1.173 1.587-1.702 2.452-3.055 4.409-6.672 9.479-8.178 14.765-1.932 6.989-.736 12.267 2.263 16.162 4.226 5.479 12.559 8.034 20.752 7.256 8.143-.739 16.14-4.579 20.055-11.024 2.713-4.377 3.552-10.068 1.158-16.953-2.669-7.819-8.836-12.496-16.387-14.965-2.887-.997-5.83-1.493-8.938-1.863 2.03-2.245 4.083-4.509 6.169-6.798 7.03-7.229 15.123-13.896 23.422-19.576 10.874-7.653 22.606-13.21 35.42-16.615 1.121-.4 1.822-1.628 1.535-2.784-.289-1.156-1.483-1.845-2.713-1.59-13.309 3.555-25.547 9.271-36.834 17.242-8.422 6.002-16.864 12.71-24.015 20.261-2.933 3.168-5.803 6.286-8.526 9.523-6.813-.051-13.555.99-18.815 2.502-34.796 10.631-61.344 51.878-76.054 83.816a2.125 2.125 0 0 0 1.022 2.889c1.114.522 2.4-.006 2.931-1.102 14.25-30.896 39.671-71.052 73.377-81.305 3.964-1.205 8.933-2.034 14.058-2.293zm5.593.07a34.616 34.616 0 0 0-3.638 4.854c-2.717 4.149-6.193 8.651-7.626 13.422-1.471 5.26-.751 9.298 1.471 12.183 3.556 4.616 10.334 6.299 16.915 5.609 6.742-.581 13.506-3.475 16.669-8.885 2.077-3.429 2.65-7.771.845-13.04-2.262-6.526-7.484-10.321-13.633-12.259-3.516-1.204-7.266-1.769-11.003-1.884z"/><path d="M40.478 198.32c-.037-1.119.18-2.432.397-3.747.377-2.583.95-5.089.896-6.883-.197-10.864-.568-23.888-4.16-34.212-.359-1.102-1.634-1.73-2.78-1.309-1.145.419-1.811 1.618-1.343 2.865 3.371 9.805 3.602 22.25 3.893 32.812-.012 1.845-.689 4.887-1.101 7.499-.294 2.29-.328 4.382.288 5.975.288.926 1.564 2.013 3.852 1.634 3.188-.61 10.374-4.515 11.105-4.846 7.389-3.374 14.022-6.169 22.161-3.693 1.12.288 2.335-.414 2.792-1.453.348-1.185-.356-2.482-1.477-2.769-9.244-2.776-16.98-.053-25.36 3.851-.457.351-4.731 2.712-8.055 3.885-.397.076-.715.319-1.108.391z"/></g><defs><clipPath id="a"><path fill="#fff" transform="scale(1 -1) rotate(-15.681 -770.75 -106.989)" d="M0 0h190.239v219.79H0z"/></clipPath></defs></svg>