<svg width="45" height="45" fill="none" xmlns="http://www.w3.org/2000/svg"><g clip-path="url(#a)"><path fill-rule="evenodd" clip-rule="evenodd" d="M11.305 20.296v9.058h22.391v-9.058a11.196 11.196 0 0 0-22.391 0zM18.99 6.733a4.282 4.282 0 1 1 7.02 0c6.03 1.561 10.496 7.05 10.496 13.563v9.233a5.078 5.078 0 0 1-1.323 9.981h-6.5a6.228 6.228 0 0 1-12.368 0h-6.5a5.078 5.078 0 0 1-1.323-9.98v-9.234c0-6.513 4.467-12.002 10.498-13.563zm2.104 6.41a1.405 1.405 0 0 1 1.405-1.406 8.591 8.591 0 0 1 8.558 8.559 1.405 1.405 0 1 1-2.81 0 5.753 5.753 0 0 0-5.748-5.747 1.406 1.406 0 0 1-1.405-1.406z" fill="#fff"/></g><defs><clipPath id="a"><path fill="#fff" d="M0 0h45v45H0z"/></clipPath></defs></svg>