<svg width="232" height="244" fill="none" xmlns="http://www.w3.org/2000/svg"><path d="M14.99 235.917a7.495 7.495 0 0 0-7.495-7.495 7.495 7.495 0 1 0 0 14.99 7.495 7.495 0 0 0 7.495-7.495zM14.99 190.232a7.495 7.495 0 1 0-14.99 0 7.495 7.495 0 0 0 14.99 0zM14.99 144.548a7.495 7.495 0 1 0-14.99 0 7.495 7.495 0 0 0 14.99 0zM14.99 98.864a7.495 7.495 0 1 0-14.99 0 7.495 7.495 0 0 0 14.99 0zM14.99 53.18a7.495 7.495 0 1 0-14.99 0 7.495 7.495 0 0 0 14.99 0zM14.99 7.495a7.495 7.495 0 1 0-14.99 0 7.495 7.495 0 0 0 14.99 0zM58.33 235.917a7.495 7.495 0 0 0-7.495-7.495 7.495 7.495 0 1 0 0 14.99 7.495 7.495 0 0 0 7.495-7.495zM58.33 190.232a7.495 7.495 0 1 0-14.99 0 7.495 7.495 0 0 0 14.99 0zM58.33 144.548a7.495 7.495 0 1 0-14.99 0 7.495 7.495 0 0 0 14.99 0zM58.33 98.864a7.495 7.495 0 1 0-14.99 0 7.495 7.495 0 0 0 14.99 0zM58.33 53.18a7.495 7.495 0 1 0-14.99 0 7.495 7.495 0 0 0 14.99 0zM58.33 7.495a7.495 7.495 0 1 0-14.99 0 7.495 7.495 0 0 0 14.99 0zM101.67 235.917a7.495 7.495 0 0 0-7.495-7.495 7.495 7.495 0 1 0 7.495 7.495zM101.67 190.232a7.495 7.495 0 1 0-14.991.001 7.495 7.495 0 0 0 14.991-.001zM101.67 144.548a7.495 7.495 0 1 0-14.991.001 7.495 7.495 0 0 0 14.991-.001zM101.67 98.864a7.495 7.495 0 1 0-14.99 0 7.495 7.495 0 0 0 14.99 0zM101.67 53.18a7.495 7.495 0 1 0-14.99 0 7.495 7.495 0 0 0 14.99 0zM101.67 7.495a7.495 7.495 0 1 0-14.99 0 7.495 7.495 0 0 0 14.99 0zM144.99 235.917a7.495 7.495 0 1 0-14.99 0 7.495 7.495 0 0 0 14.99 0zM144.99 190.232a7.495 7.495 0 1 0-14.991.001 7.495 7.495 0 0 0 14.991-.001zM144.99 144.548a7.495 7.495 0 1 0-14.991.001 7.495 7.495 0 0 0 14.991-.001zM144.99 98.864a7.495 7.495 0 1 0-14.99 0 7.495 7.495 0 0 0 14.99 0zM144.99 53.18a7.495 7.495 0 1 0-14.99 0 7.495 7.495 0 0 0 14.99 0zM144.99 7.495a7.495 7.495 0 1 0-14.99 0 7.495 7.495 0 0 0 14.99 0zM188.33 235.917a7.495 7.495 0 1 0-14.99 0 7.495 7.495 0 0 0 14.99 0zM188.33 190.232a7.495 7.495 0 1 0-14.991.001 7.495 7.495 0 0 0 14.991-.001zM188.33 144.548a7.495 7.495 0 1 0-14.991.001 7.495 7.495 0 0 0 14.991-.001zM188.33 98.864a7.495 7.495 0 1 0-14.99 0 7.495 7.495 0 0 0 14.99 0zM188.33 53.18a7.495 7.495 0 1 0-14.99 0 7.495 7.495 0 0 0 14.99 0zM188.33 7.495a7.495 7.495 0 1 0-14.99 0 7.495 7.495 0 0 0 14.99 0zM231.67 235.917a7.495 7.495 0 1 0-14.99 0 7.495 7.495 0 0 0 14.99 0zM231.67 190.232a7.495 7.495 0 1 0-14.991.001 7.495 7.495 0 0 0 14.991-.001zM231.67 144.548a7.495 7.495 0 1 0-14.991.001 7.495 7.495 0 0 0 14.991-.001zM231.67 98.864a7.495 7.495 0 1 0-14.99 0 7.495 7.495 0 0 0 14.99 0zM231.67 53.18a7.495 7.495 0 1 0-14.99 0 7.495 7.495 0 0 0 14.99 0zM231.67 7.495a7.495 7.495 0 1 0-14.99 0 7.495 7.495 0 0 0 14.99 0z" fill="#F05C72"/></svg>