<svg width="130" height="115" fill="none" xmlns="http://www.w3.org/2000/svg"><path d="M65.672 73.911c-.718-2.392-.971-4.258-1.813-5.793-1.547-2.829-3.526-5.413-5.17-8.183-2.882-4.844-5.55-9.819-8.501-14.62-1.669-2.717-3.44-5.476-5.677-7.703-2.623-2.61-6.321-2.705-8.908-.963-2.855 1.925-3.841 5.615-2.071 9.356 1.13 2.398 2.528 4.841 4.383 6.692 5.897 5.88 12.028 11.532 18.154 17.178 1.568 1.444 3.347 2.75 5.226 3.736.98.526 2.405.208 4.377.3zM104.015 70.096c.618.232 1.368.774 2.025.678.677-.108 1.572-.702 1.819-1.311.601-1.482.985-3.07 1.273-4.656 1.683-9.29 3.35-18.59 4.915-27.904.305-1.825.401-3.79.075-5.602-.62-3.434-3.591-5.974-6.65-6.145-3.018-.168-6.047 2.207-7.085 5.595-.238.765-.44 1.574-.466 2.372-.37 11.643.22 23.204 3.072 34.566.186.773.618 1.481 1.022 2.407zM16.767 83.605c1.059.735 2.668 2.325 4.599 3.1 7.004 2.822 14.11 5.391 21.197 7.99.994.365 2.115.453 3.185.504 1.354.079 2.935 0 3.229-1.61.158-.849-.529-1.973-1.08-2.799-.423-.629-1.233-1.02-1.907-1.466-6.534-4.3-13.036-8.658-19.647-12.835-1.781-1.123-3.844-1.941-5.89-2.435-1.885-.45-3.782.08-4.894 1.988-1.025 1.77-1.095 3.576-.108 5.394.26.489.56.934 1.316 2.17z" fill="#F05C72"/></svg>