<svg width="201" height="201" fill="none" xmlns="http://www.w3.org/2000/svg"><g clip-path="url(#a)" fill="#02C2C5"><path d="M170.87 126.117c-12.882 34.974-58.304 42.324-79.696 11.03-1.136-1.527-2.08-3.434-2.931-5.055 21.46-12.768 38.489-37.068 33.808-58.022-4.308-18.86-24.676-18.173-33.58-3.836-10.531 17.091-14.893 38.488-9.445 57.922-14.206 6.894-30.102 7.692-42.905-4.251-21.528-20.16-14.437-59.248 6.375-76.872 2.29-1.704-.17-5.33-2.461-3.625-30.053 20.35-31.958 72.304-.341 92.311 12.343 7.659 27.765 6.384 42.064-.225 8.401 18.779 28.633 29.227 48.618 29.301 23.125-.01 38.984-16.319 45.911-36.66 1.154-3.232-4.169-4.964-5.417-2.018zM87.83 89.456c2.502-7.795 6.153-16.918 13.024-22.031 6.584-5.02 12.545 4.424 14.336 8.904 2.169 5.623-.139 12.085-2.538 17.31-4.8 11.402-15.122 23.356-27.142 31.115-2.813-11.431-.958-24.081 2.32-35.298z"/><path d="M183.396 110.27c-8.004 2.635-16.105 5.936-23.165 10.478-2.861 1.893-.021 5.71 2.936 4.103 5.912-3.214 12.581-5.093 18.964-6.877.937 3.81 1.969 7.906 2.62 11.81.37 3.047-.219 7.993 2.437 10.287 1.328 1.147 2.757.677 3.998-.366 2.96-2.559.984-8.561.52-11.894-.837-5.428-2.151-10.381-3.845-15.527-.564-1.714-2.75-2.579-4.465-2.014z"/></g><defs><clipPath id="a"><path fill="#fff" transform="rotate(-18.223 154.876 24.84)" d="M0 0h158.86v158.86H0z"/></clipPath></defs></svg>