<svg width="163" height="168" fill="none" xmlns="http://www.w3.org/2000/svg"><path d="M67.708 25.814c2.475.794 4.09 1.188 5.598 1.834 1.347.577 2.55 1.477 3.858 2.154 3.4 1.764 5.182 1.152 6.66-2.461.818-1.999 1.238-4.158 2.035-6.167.534-1.345 1.212-2.746 2.186-3.778 1.775-1.88 3.887-1.646 5.476.423.752.981 1.323 2.106 1.946 3.184.738 1.277 1.33 2.655 2.187 3.843 2.112 2.927 3.637 3.143 6.499.928 1.254-.97 2.397-2.107 3.489-3.265 1.537-1.63 3.189-3.217 5.567-2.525 2.573.748 3.037 3.125 3.309 5.457.224 1.918.256 3.875.655 5.752.641 3.02 2.914 4.257 5.855 3.287 1.397-.46 2.702-1.203 4.082-1.727 1.376-.524 2.765-1.133 4.2-1.352 2.765-.425 4.483 1.373 3.763 4.048-.526 1.955-1.414 3.856-2.39 5.644-2.933 5.374-2.333 6.94 3.478 8.937 1.705.586 3.361 1.365 4.944 2.23 2.955 1.616 3.378 4.297 1.039 6.721-.937.97-2.14 1.686-3.251 2.477-.836.595-1.731 1.104-2.574 1.689-2.559 1.772-2.647 3.005-.19 4.99 1.407 1.135 2.998 2.04 4.485 3.077.739.516 1.489 1.038 2.135 1.662 1.94 1.882 1.964 4.264-.28 5.774-1.432.965-3.291 1.497-5.024 1.758-5.7.86-6.317 1.774-4.576 7.421.601 1.954 1.035 3.963 1.668 5.905.57 1.755.643 3.452-.728 4.788-1.505 1.467-3.46 1.715-5.401 1.114-1.398-.432-2.687-1.2-4.06-1.73-1.208-.465-2.464-.805-4.124-1.336-.557 3.259-.895 6.071-1.555 8.808-.442 1.84-1.111 3.712-2.09 5.319-1.354 2.224-3.696 2.76-5.906 1.425-1.823-1.102-3.485-2.503-5.103-3.906-2.388-2.071-4.045-2.012-5.974.565-.955 1.275-1.655 2.736-2.524 4.079-2.254 3.49-6.048 3.663-8.228.233-1.268-1.994-2.101-4.265-3.202-6.372-1.956-3.746-2.922-4.022-6.703-2.027-2.01 1.06-3.927 2.163-6.397 1.913-2.28-.232-3.596-1.398-4.087-3.428-.48-1.977-.636-4.037-.892-6.066-.452-3.574-.958-4.054-4.49-4.046-2.286.004-4.534-.049-6.514-1.455-2.14-1.522-2.873-3.075-2.065-5.552.631-1.935 1.525-3.8 2.454-5.619 2.105-4.115 1.588-5.832-2.52-7.857-1.213-.6-2.522-1.07-3.609-1.85-2.31-1.658-2.552-3.634-.578-5.765 1.053-1.135 2.468-2 3.845-2.754 3.962-2.17 4.503-3.608 2.538-7.656-.49-1.011-1.196-1.915-1.745-2.9-.715-1.286-1.535-2.546-2.02-3.922-.823-2.339.08-3.714 2.576-4.096 1.23-.188 2.492-.168 3.742-.207 1.13-.036 2.264.01 3.395-.04 4.97-.219 6.425-1.94 5.857-6.967-.167-1.469-.554-2.916-.656-4.387-.128-1.763-.051-3.54-.065-6.226zm74.023 51.442c.016-2.43-1.275-3.514-2.703-4.484-1.497-1.019-3.153-1.844-4.507-3.024-3.275-2.854-2.894-5.875.826-8.172 1.741-1.075 3.589-2.067 5.085-3.432 2.178-1.987 1.719-3.862-.957-4.904-1.793-.699-3.607-1.34-5.405-2.022-4.884-1.854-6.029-4.924-3.59-9.685.626-1.22 1.528-2.334 1.961-3.61.452-1.332 1.142-3.226.569-4.119-1.051-1.634-2.888-.363-4.321.15-1.92.689-3.728 1.733-5.676 2.295-3.918 1.129-6.986-.899-7.688-4.95-.271-1.564-.313-3.169-.521-4.747-.147-1.123-.241-2.294-.641-3.333-.658-1.715-2.005-2.063-3.536-.978-.828.588-1.496 1.402-2.257 2.087-1.354 1.218-2.622 2.569-4.113 3.587-2.574 1.76-4.905 1.519-6.965-.837-1.32-1.51-2.228-3.388-3.328-5.095-.894-1.39-1.801-2.771-2.608-4.01-2.409.306-3.354 1.626-3.851 3.395-.585 2.08-1.038 4.207-1.748 6.244-1.614 4.628-4.665 5.972-9.06 4.003-1.651-.74-3.168-1.772-4.791-2.58-.646-.32-1.415-.394-2.51-.68.052 1.367.027 2.363.14 3.341.225 1.924.68 3.83.766 5.758.21 4.686-1.798 7.036-6.416 7.588-1.572.188-3.178.034-4.76.163-1.488.121-2.964.41-5.153.728 1.178 1.355 1.828 2.077 2.45 2.823 1.511 1.813 3.24 3.494 4.46 5.489 1.982 3.24 1.005 6.16-2.363 8.02-.994.549-2.081.933-3.05 1.52-2.049 1.24-2.313 2.677-.737 4.46.89 1.006 1.962 1.871 3.04 2.686 4.08 3.084 4.635 5.502 2.2 9.954-.22.4-.457.793-.675 1.194-2.635 4.872-2.202 5.881 3.115 7.254 5.081 1.312 6.741 3.275 7.229 8.495.138 1.47.189 2.971.543 4.39.507 2.035 1.815 2.802 3.845 2.294 1.197-.299 2.38-.815 3.451-1.441 5.583-3.257 9.411-.721 11.002 4.519.393 1.298.914 2.596 1.61 3.75 1.16 1.923 2.614 2.002 4.063.282 1.027-1.221 1.944-2.541 2.855-3.854 2.544-3.664 4.504-4.267 8.339-2.274 2.107 1.095 4.055 2.491 6.131 3.65 2.996 1.674 4.001 1.102 4.367-2.409.083-.783.013-1.582.026-2.373.024-1.479.092-2.959.082-4.437-.027-4.377 6.809-8.01 10.198-4.709.399.39.911.683 1.413.939 1.355.69 2.73 2.21 4.291.769 1.497-1.381.811-3.157.158-4.76-.815-1.999-1.812-3.934-2.483-5.98-.979-2.99.204-5.46 3.134-6.641 1.246-.502 2.642-.617 3.96-.947 1.723-.428 3.436-.899 5.104-1.34zm-88.77-7.492-1.425-4.104c-1.097 2.14-.58 2.997 1.426 4.104z" fill="#02C2C5"/><path d="M141.158 147.462c-6.031-4.586-12.382-8.589-20.025-11.271-4.155 5.931-6.57 12.955-10.636 19.486-.785-2.019-1.761-3.814-2.177-5.731-1.871-8.615-4.723-16.907-7.757-25.164-.824-2.245-.966-4.821-1.006-7.252-.044-2.672 1.337-3.7 3.952-2.953 1.902.543 3.716 1.536 5.426 2.565 1.532.922 2.841 2.203 4.295 3.263 2.927 2.134 5.356 1.831 6.96-1.423 1.63-3.306 2.627-6.924 3.92-10.397.373-1.003.814-1.981 1.641-2.99 3.364 6.703 5.494 13.762 8.164 20.602 2.686 6.881 5.296 13.79 7.939 20.687l-.696.578zm-20.947-13.404c6.414 1.834 11.679 5.28 17.829 8.764-.587-2.273-.832-3.789-1.364-5.196-3.428-9.06-6.917-18.097-10.407-27.134-.083-.215-.413-.335-.801-.63-.259.839-.429 1.475-.651 2.094-.908 2.537-1.6 5.184-2.798 7.576-2.12 4.23-5.594 5.07-9.523 2.497-1.597-1.046-3.013-2.365-4.559-3.495-1.885-1.378-3.797-2.769-6.816-2.045.312 1.987.344 3.917.936 5.657 2.353 6.929 4.874 13.801 7.347 20.689.736 2.05 1.525 4.083 2.521 6.742 1.595-3.219 2.775-5.756 4.093-8.218 1.319-2.46 2.776-4.847 4.193-7.301zM27.482 96.843c-3.165-1.828-5.952-3.518-8.815-5.066-2.766-1.495-5.127-3.797-8.867-4.167 1.712-2.076 3.832-2.54 5.796-3.14 2.167-.66 4.463-.88 6.615-1.579 5.29-1.718 10.511-3.655 15.794-5.396 3.447-1.136 6.921-2.226 10.445-3.064 2.76-.657 4.038-.03 5.597 2.07-3.073 2.917-4.987 6.618-6.526 10.55-1.71 4.37-.918 6.304 3.421 7.835 2.44.861 4.944 1.537 7.408 2.332.921.297 1.81.697 2.656 1.029-.122 1.898-1.428 2.306-2.523 2.762-4.826 2.007-9.65 4.023-14.536 5.872-6.694 2.534-13.445 4.912-20.167 7.372-1.484.543-2.946 1.152-4.644 1.379.998-7.115 5.11-12.52 8.346-18.79zm-5.863 15.743c4.746-.449 33.21-11.352 35.456-13.57-2.56-.94-5.142-1.723-7.582-2.818-4.827-2.167-5.786-4.983-3.494-9.945 1.102-2.384 2.38-4.687 3.538-7.047.314-.638.48-1.348.738-2.096-.535-.049-.776-.14-.973-.078-9.767 3.046-19.536 6.083-29.283 9.195-1.192.38-2.258 1.179-4.065 2.15l13.858 8.001c-2.613 5.72-6.65 10.307-8.193 16.208zM106.065 42.86c1.385.578 2.674 1.014 3.863 1.645 1.073.57 2.035 1.35 3.299 2.21-1.721 5.457-4.955 10.602-7.426 16.086-2.389 5.3-4.767 10.605-7.104 15.929-.26.592-.218 1.319-.305 1.91 1.797 1.204 3.572 2.21 5.131 3.48 2.413 1.967 2.563 6.017.36 8.175-.395.386-1.222.471-1.839.449-.538-.02-1.097-.329-1.589-.612-7.7-4.428-15.39-8.874-23.425-13.513l1.47-6.489c4.522-.499 7.245 3.17 11.397 4.574 5.544-8.735 8.788-18.803 14.218-27.899-.984.448-1.972.888-2.953 1.344-3.056 1.424-6.203 1.411-9.363.47-.507-.152-.868-.798-1.88-1.782 3.757.206 6.701 1.116 9.708-.011 2.977-1.116 4.844-3.228 6.438-5.967zm3.375 4.852c-.257.357-.543.698-.767 1.075-2.57 4.332-5.176 8.643-7.681 13.011-2.676 4.668-5.271 9.382-7.863 14.098-.564 1.027-1.246 2.123-.068 3.891 5.436-10.976 12.193-20.743 16.379-32.075zm-30.444 29.63c4.083 3.436 11.85 7.638 13.928 7.596-2.93-3.502-3.027-3.538-9.14-5.352-.478-.142-.824-.735-1.231-1.118l.291-.663 4.916.749.135-.434-7.01-4.048-1.889 3.27zm22.484 12.085-3.89-4.27c.119.962.945 1.632.978 2.339.122 2.593 2.111 2.789 3.778 3.492 1.829-2.838 1.831-2.959-.065-5.048l-.801 3.487zM97.438 76.13c-.937 1.19-2.262 2.283-2.302 4.511 2.1-1.153 1.958-2.939 2.302-4.51z" fill="#02C2C5"/></svg>