<svg width="88" height="84" fill="none" xmlns="http://www.w3.org/2000/svg"><g clip-path="url(#a)" fill-rule="evenodd" clip-rule="evenodd" fill="#02C2C5"><path d="M39.083 30.339C30.914 23.592 24.295 15.557 19.32 6.196a3.828 3.828 0 0 0-5.184-1.576c-1.856.999-2.564 3.325-1.569 5.209 5.471 10.245 12.703 19.049 21.656 26.45a3.832 3.832 0 0 0 5.395-.52 3.877 3.877 0 0 0-.536-5.42z"/><path d="M34.727 4.062c.42 7.766.803 15.531 1.281 23.297.134 2.114 1.952 3.729 4.056 3.595a3.84 3.84 0 0 0 3.577-4.076c-.478-7.746-.86-15.492-1.282-23.258A3.836 3.836 0 0 0 38.323.006a3.825 3.825 0 0 0-3.596 4.056zM63.127 5.638C58.23 13.058 52.682 19.9 47.097 26.82c-1.34 1.654-1.091 4.076.554 5.402a3.794 3.794 0 0 0 5.376-.558c5.739-7.093 11.44-14.147 16.49-21.778 1.167-1.768.67-4.152-1.09-5.324-1.741-1.173-4.133-.692-5.3 1.076z"/><path d="M82.099 33.222c-13.277.596-27.376.615-40.653-.23a3.85 3.85 0 0 0-4.055 3.613 3.84 3.84 0 0 0 3.577 4.075c13.544.846 27.93.827 41.475.23 2.104-.095 3.75-1.902 3.654-4.016-.096-2.115-1.894-3.768-3.998-3.672z"/><path d="M34.213 35.662c8.188 10.072 16.663 19.953 24.258 30.486a3.831 3.831 0 0 0 5.357.846 3.853 3.853 0 0 0 .841-5.363c-7.69-10.649-16.26-20.645-24.544-30.832-1.34-1.634-3.75-1.884-5.376-.538a3.838 3.838 0 0 0-.536 5.401z"/><path d="M36.693 38.586c2.143 10.495 2.736 20.53 2.889 31.159a3.83 3.83 0 0 0 3.864 3.786 3.823 3.823 0 0 0 3.769-3.902c-.153-11.13-.785-21.605-3.023-32.6-.44-2.076-2.448-3.422-4.534-2.98a3.824 3.824 0 0 0-2.965 4.537z"/><path d="M37.038 37.74c-6.198 12.456-9.393 26.295-16.03 38.482-1.015 1.846-.326 4.19 1.53 5.21a3.818 3.818 0 0 0 5.184-1.52c6.676-12.263 9.91-26.18 16.165-38.732a3.887 3.887 0 0 0-1.702-5.17 3.842 3.842 0 0 0-5.147 1.73z"/><path d="M40.45 34.913c-12.34 2.192-24.66 3.191-37.075 4.672a3.829 3.829 0 0 0-3.348 4.267 3.82 3.82 0 0 0 4.247 3.364c12.55-1.48 25.023-2.519 37.515-4.729 2.066-.384 3.463-2.384 3.1-4.46-.383-2.095-2.354-3.498-4.44-3.114z"/><path d="M49.036 29.071c-2.544-.115-4.955-.289-7.442-.654a3.83 3.83 0 0 0-4.342 3.249c-.307 2.095 1.147 4.056 3.233 4.363 2.754.404 5.414.596 8.206.711a3.807 3.807 0 0 0 3.98-3.671 3.82 3.82 0 0 0-3.635-3.998z"/></g><defs><clipPath id="a"><path fill="#fff" d="M0 0h88v84H0z"/></clipPath></defs></svg>