<svg width="145" height="141" fill="none" xmlns="http://www.w3.org/2000/svg"><path d="M27.516 101.658c-1.415.017-2.582-.56-2.968-.84-3.581-2.587 4.524-19.566 50.013-87.235 1.518-2.25 4.968-7.24 10.592-8.221 4.35-.752 10.251.826 12.05 4.288 3.414 6.599-10.723 14.87-27.185 38.421-11.457 16.39-24.469 31.668-35.523 48.305-.817 1.244-3.407 5.211-6.979 5.282zM40.953 105.695c-1.053-3.629 2.057-7.42 3.197-8.826 10.64-13.226 36.802-52.036 49.698-52.127 1.185-.012 4.557-.036 6.425 2.18 1.306 1.537 1.296 3.528 1.31 4.242.014 10.652-34.652 39.086-47.446 52.812-1.605 1.72-5.964 6.552-9.7 5.49-1.697-.491-3.01-2.15-3.484-3.771zM61.025 124.631c-1.867-2.771.604-7.479 1.967-9.931 15.603-28.182 45.732-53.268 55.459-58.971 1.205-.71 3.532-1.96 6.332-1.588 2.825.374 5.581 2.357 6.429 4.16 2.485 5.304-9.587 12.846-23.197 29.18-6.275 7.537-17.419 22.387-28.521 33.366-1.529 1.512-5.985 5.8-12.03 5.953-1.03.021-4.895.125-6.44-2.169z" fill="#F05C72"/></svg>