<svg width="85" height="73" fill="none" xmlns="http://www.w3.org/2000/svg"><g clip-path="url(#a)"><path opacity=".3" d="M36.555 31.674C42.787 25.951 48.606 20.228 54.866 15c4.854-4.045 10.148-7.622 15.443-11.09 2.427-1.595 5.24-2.833 8.053-3.576 4.605-1.266 7.198 1.155 6.536 5.86-.276 1.9-.883 3.908-1.876 5.531-4.44 7.347-8.769 14.777-13.678 21.848-6.59 9.493-13.568 18.71-20.545 27.902-2.344 3.109-5.157 5.888-7.942 8.64-3.613 3.577-7.777 3.907-11.803.55-3.778-3.165-7.28-6.687-10.562-10.346-6.426-7.154-12.327-14.694-15.444-23.994C1.063 30.409-.399 24.41.098 18.109.594 11.835 4.207 7.543 10.08 6.002c3.281-.88 6.122.083 8.824 1.816 4.027 2.587 6.702 6.439 9.239 10.319 2.895 4.402 5.598 8.997 8.41 13.537zm44.317-26.14c-.331-.33-.662-.688-.993-1.018-1.517.55-3.2.908-4.55 1.734-4.082 2.504-8.163 5.035-11.997 7.842-8.218 5.998-15.691 12.822-22.475 20.417-1.186 1.32-1.793 2.531-1.076 4.512.91 2.532.442 2.834-2.482 3.302-.579.083-1.268.386-1.6.798-.771.99-1.792 1.816-2.784.88-.773-.742-1.076-2.145-1.186-3.274-.083-.743.413-1.65.855-2.339.8-1.238.634-2.31-.11-3.522-3.586-5.888-7.033-11.86-10.728-17.665-1.186-1.871-2.868-3.522-4.578-4.925-4.633-3.77-9.625-2.504-11.886 3.027-.662 1.623-.91 3.576-.882 5.338a42.229 42.229 0 0 0 3.612 15.931c5.157 11.695 13.458 20.995 22.944 29.36.11.082.221.192.332.275 3.143 2.34 4.191 2.34 6.949-.247 1.434-1.349 2.84-2.752 4.054-4.293C54.7 46.148 66.42 30.161 76.762 13.184c1.545-2.422 2.758-5.09 4.11-7.65z" fill="#F05C72"/></g><defs><clipPath id="a"><path fill="#fff" d="M0 0h85v73H0z"/></clipPath></defs></svg>