<svg width="240" height="60" viewBox="0 0 240 60" fill="none" xmlns="http://www.w3.org/2000/svg">
<path d="M79.4017 21.4323L40.2326 42.2968L1.06349 21.4323L40.2326 0.56652L79.4017 21.4323Z" fill="#F05C72" stroke="white"/>
<path d="M69.825 32.5164V42.3632L40.2676 58.1089H40.2332L10.6758 42.3632V32.5164" stroke="#F89221" stroke-width="2" stroke-miterlimit="10" stroke-linecap="round" stroke-linejoin="round"/>
<path d="M76.0273 53.6999V27.0955" stroke="#F89221" stroke-width="2" stroke-miterlimit="10" stroke-linecap="round" stroke-linejoin="round"/>
<mask id="path-4-inside-1_7_5820" fill="white">
<path d="M107.228 6.79626H108.384V16.4737H107.228V15.7576C106.222 16.364 105.216 16.6672 104.211 16.6672C102.879 16.6672 101.997 16.3317 101.566 15.6608C101.148 14.9899 100.939 13.7188 100.939 11.8479V6.79626H102.095V11.8285C102.095 13.3253 102.233 14.3318 102.507 14.8479C102.794 15.364 103.408 15.6221 104.348 15.6221C104.805 15.6221 105.275 15.5575 105.759 15.4285C106.242 15.2866 106.607 15.1447 106.856 15.0027L107.228 14.8092V6.79626ZM118.755 16.4737H117.599V6.79626H118.755V7.51239C119.852 6.90593 120.917 6.60271 121.949 6.60271C123.256 6.60271 124.123 6.94464 124.554 7.62852C124.999 8.31238 125.221 9.564 125.221 11.3834V16.4737H124.045V11.4414C124.045 9.95759 123.902 8.95755 123.614 8.44142C123.327 7.91239 122.713 7.64787 121.772 7.64787C121.316 7.64787 120.832 7.71884 120.323 7.86078C119.827 7.98981 119.441 8.12529 119.167 8.26723L118.755 8.46078V16.4737ZM134.315 16.4737V6.79626H135.471V16.4737H134.315ZM134.315 4.37691V2.92529H135.471V4.37691H134.315ZM143.739 6.79626H145.032L147.481 15.4672H148.265L150.811 6.79626H152.026L149.166 16.4737H146.599L143.739 6.79626ZM166.599 15.5059L167.186 15.4479L167.225 16.3963C165.749 16.5769 164.502 16.6672 163.483 16.6672C162.073 16.6544 161.086 16.2414 160.525 15.4285C159.963 14.6156 159.683 13.364 159.683 11.6737C159.683 8.29303 161.028 6.60271 163.719 6.60271C165.012 6.60271 165.977 6.97045 166.618 7.70594C167.258 8.42851 167.578 9.5898 167.578 11.1898L167.539 12.1189H160.878C160.878 13.306 161.08 14.1898 161.485 14.7705C161.902 15.3382 162.608 15.6221 163.601 15.6221C164.606 15.6221 165.605 15.5834 166.599 15.5059ZM160.878 11.1511H166.403C166.403 9.87369 166.187 8.964 165.756 8.42207C165.338 7.88013 164.659 7.60916 163.719 7.60916C162.791 7.60916 162.086 7.89303 161.603 8.46078C161.119 9.01561 160.878 9.9124 160.878 11.1511ZM176.255 16.4737V6.79626H177.411V8.18981C177.894 7.85432 178.482 7.53174 179.175 7.22207C179.88 6.91239 180.526 6.70593 181.114 6.60271V7.764C180.552 7.88013 179.964 8.06077 179.351 8.30594C178.737 8.5382 178.26 8.74464 177.921 8.92529L177.411 9.21562V16.4737H176.255ZM192.122 7.66723C190.581 7.66723 189.81 8.21561 189.81 9.31239C189.81 9.81563 189.979 10.1705 190.319 10.3769C190.659 10.5833 191.423 10.7899 192.612 10.9963C193.814 11.1898 194.656 11.4608 195.139 11.8092C195.636 12.1576 195.883 12.8285 195.883 13.8221C195.883 14.8027 195.563 15.5253 194.923 15.9898C194.284 16.4415 193.343 16.6672 192.102 16.6672C191.384 16.6672 190.457 16.5769 189.32 16.3963L188.752 16.3189L188.83 15.293C190.293 15.5124 191.417 15.6221 192.2 15.6221C192.984 15.6221 193.591 15.4866 194.022 15.2156C194.466 14.9447 194.688 14.4866 194.688 13.8414C194.688 13.1962 194.505 12.7704 194.14 12.564C193.787 12.3446 193.016 12.1447 191.828 11.964C190.652 11.7833 189.823 11.5253 189.34 11.1898C188.857 10.8543 188.615 10.2221 188.615 9.29303C188.615 8.364 188.948 7.68658 189.614 7.26078C190.28 6.83497 191.103 6.62207 192.083 6.62207C192.866 6.62207 193.846 6.70593 195.021 6.87368L195.55 6.9511L195.511 7.97691C194.113 7.77045 192.984 7.66723 192.122 7.66723ZM204.521 16.4737V6.79626H205.676V16.4737H204.521ZM204.521 4.37691V2.92529H205.676V4.37691H204.521ZM219.841 7.82207H216.569V12.6027C216.569 13.8543 216.661 14.6737 216.844 15.0608C217.027 15.4479 217.458 15.6414 218.137 15.6414L219.939 15.5059L220.018 16.493C219.156 16.622 218.496 16.6866 218.039 16.6866C217.047 16.6866 216.354 16.4478 215.962 15.9705C215.583 15.4801 215.394 14.5511 215.394 13.1834V7.82207H213.944V6.79626H215.394V3.75755H216.569V6.79626H219.841V7.82207ZM227.006 6.79626H228.201L230.807 15.4672H231.512L234.137 6.79626H235.333L231.101 20.8285H229.925L231.238 16.4737H229.886L227.006 6.79626Z"/>
</mask>
<path d="M107.228 6.79626H108.384V16.4737H107.228V15.7576C106.222 16.364 105.216 16.6672 104.211 16.6672C102.879 16.6672 101.997 16.3317 101.566 15.6608C101.148 14.9899 100.939 13.7188 100.939 11.8479V6.79626H102.095V11.8285C102.095 13.3253 102.233 14.3318 102.507 14.8479C102.794 15.364 103.408 15.6221 104.348 15.6221C104.805 15.6221 105.275 15.5575 105.759 15.4285C106.242 15.2866 106.607 15.1447 106.856 15.0027L107.228 14.8092V6.79626ZM118.755 16.4737H117.599V6.79626H118.755V7.51239C119.852 6.90593 120.917 6.60271 121.949 6.60271C123.256 6.60271 124.123 6.94464 124.554 7.62852C124.999 8.31238 125.221 9.564 125.221 11.3834V16.4737H124.045V11.4414C124.045 9.95759 123.902 8.95755 123.614 8.44142C123.327 7.91239 122.713 7.64787 121.772 7.64787C121.316 7.64787 120.832 7.71884 120.323 7.86078C119.827 7.98981 119.441 8.12529 119.167 8.26723L118.755 8.46078V16.4737ZM134.315 16.4737V6.79626H135.471V16.4737H134.315ZM134.315 4.37691V2.92529H135.471V4.37691H134.315ZM143.739 6.79626H145.032L147.481 15.4672H148.265L150.811 6.79626H152.026L149.166 16.4737H146.599L143.739 6.79626ZM166.599 15.5059L167.186 15.4479L167.225 16.3963C165.749 16.5769 164.502 16.6672 163.483 16.6672C162.073 16.6544 161.086 16.2414 160.525 15.4285C159.963 14.6156 159.683 13.364 159.683 11.6737C159.683 8.29303 161.028 6.60271 163.719 6.60271C165.012 6.60271 165.977 6.97045 166.618 7.70594C167.258 8.42851 167.578 9.5898 167.578 11.1898L167.539 12.1189H160.878C160.878 13.306 161.08 14.1898 161.485 14.7705C161.902 15.3382 162.608 15.6221 163.601 15.6221C164.606 15.6221 165.605 15.5834 166.599 15.5059ZM160.878 11.1511H166.403C166.403 9.87369 166.187 8.964 165.756 8.42207C165.338 7.88013 164.659 7.60916 163.719 7.60916C162.791 7.60916 162.086 7.89303 161.603 8.46078C161.119 9.01561 160.878 9.9124 160.878 11.1511ZM176.255 16.4737V6.79626H177.411V8.18981C177.894 7.85432 178.482 7.53174 179.175 7.22207C179.88 6.91239 180.526 6.70593 181.114 6.60271V7.764C180.552 7.88013 179.964 8.06077 179.351 8.30594C178.737 8.5382 178.26 8.74464 177.921 8.92529L177.411 9.21562V16.4737H176.255ZM192.122 7.66723C190.581 7.66723 189.81 8.21561 189.81 9.31239C189.81 9.81563 189.979 10.1705 190.319 10.3769C190.659 10.5833 191.423 10.7899 192.612 10.9963C193.814 11.1898 194.656 11.4608 195.139 11.8092C195.636 12.1576 195.883 12.8285 195.883 13.8221C195.883 14.8027 195.563 15.5253 194.923 15.9898C194.284 16.4415 193.343 16.6672 192.102 16.6672C191.384 16.6672 190.457 16.5769 189.32 16.3963L188.752 16.3189L188.83 15.293C190.293 15.5124 191.417 15.6221 192.2 15.6221C192.984 15.6221 193.591 15.4866 194.022 15.2156C194.466 14.9447 194.688 14.4866 194.688 13.8414C194.688 13.1962 194.505 12.7704 194.14 12.564C193.787 12.3446 193.016 12.1447 191.828 11.964C190.652 11.7833 189.823 11.5253 189.34 11.1898C188.857 10.8543 188.615 10.2221 188.615 9.29303C188.615 8.364 188.948 7.68658 189.614 7.26078C190.28 6.83497 191.103 6.62207 192.083 6.62207C192.866 6.62207 193.846 6.70593 195.021 6.87368L195.55 6.9511L195.511 7.97691C194.113 7.77045 192.984 7.66723 192.122 7.66723ZM204.521 16.4737V6.79626H205.676V16.4737H204.521ZM204.521 4.37691V2.92529H205.676V4.37691H204.521ZM219.841 7.82207H216.569V12.6027C216.569 13.8543 216.661 14.6737 216.844 15.0608C217.027 15.4479 217.458 15.6414 218.137 15.6414L219.939 15.5059L220.018 16.493C219.156 16.622 218.496 16.6866 218.039 16.6866C217.047 16.6866 216.354 16.4478 215.962 15.9705C215.583 15.4801 215.394 14.5511 215.394 13.1834V7.82207H213.944V6.79626H215.394V3.75755H216.569V6.79626H219.841V7.82207ZM227.006 6.79626H228.201L230.807 15.4672H231.512L234.137 6.79626H235.333L231.101 20.8285H229.925L231.238 16.4737H229.886L227.006 6.79626Z" fill="#F89221" stroke="#F89221" stroke-width="2" mask="url(#path-4-inside-1_7_5820)"/>
<path d="M105.636 49.0255H114.893V52.748H100.729V27.4255H105.136V48.5255V49.0255H105.636ZM143.441 43.3029H141.512V39.6577H148.27V52.3946C144.741 52.9419 141.88 53.2126 139.68 53.2126C135.598 53.2126 132.938 52.135 131.506 50.1333C130.056 48.0672 129.287 44.7111 129.287 39.9706C129.287 35.2295 130.096 31.9221 131.613 29.939C133.1 27.9958 135.673 26.9609 139.484 26.9609C141.876 26.9609 144.47 27.2279 147.265 27.7649L148.254 27.9549L148.134 31.1336C145.229 30.8343 142.814 30.6835 140.894 30.6835C138.899 30.6835 137.386 30.9117 136.453 31.4465C135.495 31.9961 134.835 32.9911 134.422 34.3259L134.422 34.3258L134.42 34.3324C134.032 35.647 133.851 37.8537 133.851 40.8996C133.851 43.9295 134.225 46.1713 135.063 47.5128C135.96 48.9495 137.756 49.5674 140.189 49.5674H140.201L140.213 49.5668L143.465 49.412L143.941 49.3893V48.9126V43.8029V43.3029H143.441ZM167.395 43.3029H165.466V39.6577H172.224V52.3946C168.695 52.9419 165.834 53.2126 163.634 53.2126C159.552 53.2126 156.892 52.1349 155.46 50.133C154.01 48.0669 153.241 44.7109 153.241 39.9706C153.241 35.2295 154.05 31.9221 155.567 29.939C157.054 27.9958 159.626 26.9609 163.438 26.9609C165.83 26.9609 168.424 27.2279 171.219 27.7649L172.208 27.9549L172.088 31.1336C169.183 30.8343 166.768 30.6835 164.848 30.6835C162.853 30.6835 161.34 30.9117 160.407 31.4465C159.448 31.9961 158.789 32.9911 158.376 34.3259L158.376 34.3258L158.374 34.3324C157.986 35.647 157.805 37.8537 157.805 40.8996C157.805 43.9295 158.179 46.1713 159.017 47.5128C159.914 48.9495 161.71 49.5674 164.143 49.5674H164.155L164.167 49.5668L167.419 49.412L167.895 49.3893V48.9126V43.8029V43.3029H167.395ZM183.238 49.1029H194.572V52.748H178.331V27.4255H194.572V31.0706H183.238H182.738V31.5706V37.7255V38.2255H183.238H192.221V41.7932H183.238H182.738V42.2932V48.6029V49.1029H183.238ZM204.935 49.1029H216.269V52.748H200.028V27.4255H216.269V31.0706H204.935H204.435V31.5706V37.7255V38.2255H204.935H213.918V41.7932H204.935H204.435V42.2932V48.6029V49.1029H204.935ZM225.965 31.148H219.334V27.4255H237.925V31.148H231.372H230.872V31.648V52.748H226.465V31.648V31.148H225.965ZM119.211 52.748V27.4255H123.619V52.748H119.211Z" fill="#202C38" stroke="#202C38"/>
</svg>
