<svg width="240" height="60" viewBox="0 0 240 60" fill="none" xmlns="http://www.w3.org/2000/svg">
<path d="M79.4017 21.4323L40.2326 42.2968L1.06349 21.4323L40.2326 0.56652L79.4017 21.4323Z" fill="#F05C72" stroke="white"/>
<path d="M69.825 32.5166V42.3635L40.2676 58.1091H40.2332L10.6758 42.3635V32.5166" stroke="white" stroke-width="2" stroke-miterlimit="10" stroke-linecap="round" stroke-linejoin="round"/>
<path d="M76.0273 53.7002V27.0957" stroke="white" stroke-width="2" stroke-miterlimit="10" stroke-linecap="round" stroke-linejoin="round"/>
<mask id="path-4-inside-1_502_38" fill="white">
<path d="M107.228 6.79675H108.384V16.4742H107.228V15.758C106.222 16.3645 105.216 16.6677 104.211 16.6677C102.879 16.6677 101.997 16.3322 101.566 15.6613C101.148 14.9903 100.939 13.7193 100.939 11.8484V6.79675H102.095V11.829C102.095 13.3258 102.233 14.3323 102.507 14.8484C102.794 15.3645 103.408 15.6226 104.348 15.6226C104.805 15.6226 105.275 15.558 105.759 15.429C106.242 15.287 106.607 15.1452 106.856 15.0032L107.228 14.8097V6.79675ZM118.755 16.4742H117.599V6.79675H118.755V7.51288C119.852 6.90642 120.917 6.6032 121.949 6.6032C123.256 6.6032 124.123 6.94513 124.554 7.62901C124.999 8.31287 125.221 9.56449 125.221 11.3839V16.4742H124.045V11.4419C124.045 9.95808 123.902 8.95804 123.614 8.44191C123.327 7.91287 122.713 7.64836 121.772 7.64836C121.316 7.64836 120.832 7.71933 120.323 7.86127C119.827 7.99029 119.441 8.12578 119.167 8.26772L118.755 8.46127V16.4742ZM134.315 16.4742V6.79675H135.471V16.4742H134.315ZM134.315 4.37739V2.92578H135.471V4.37739H134.315ZM143.739 6.79675H145.032L147.481 15.4677H148.265L150.811 6.79675H152.026L149.166 16.4742H146.599L143.739 6.79675ZM166.599 15.5064L167.186 15.4484L167.225 16.3968C165.749 16.5774 164.502 16.6677 163.483 16.6677C162.073 16.6549 161.086 16.2419 160.525 15.429C159.963 14.6161 159.683 13.3645 159.683 11.6742C159.683 8.29352 161.028 6.6032 163.719 6.6032C165.012 6.6032 165.977 6.97094 166.618 7.70643C167.258 8.429 167.578 9.59029 167.578 11.1903L167.539 12.1193H160.878C160.878 13.3065 161.08 14.1903 161.485 14.771C161.902 15.3387 162.608 15.6226 163.601 15.6226C164.606 15.6226 165.605 15.5839 166.599 15.5064ZM160.878 11.1516H166.403C166.403 9.87418 166.187 8.96449 165.756 8.42256C165.338 7.88062 164.659 7.60965 163.719 7.60965C162.791 7.60965 162.086 7.89352 161.603 8.46127C161.119 9.0161 160.878 9.91289 160.878 11.1516ZM176.255 16.4742V6.79675H177.411V8.1903C177.894 7.85481 178.482 7.53223 179.175 7.22256C179.88 6.91288 180.526 6.70642 181.114 6.6032V7.76449C180.552 7.88062 179.964 8.06126 179.351 8.30643C178.737 8.53868 178.26 8.74513 177.921 8.92578L177.411 9.2161V16.4742H176.255ZM192.122 7.66772C190.581 7.66772 189.81 8.2161 189.81 9.31288C189.81 9.81611 189.979 10.171 190.319 10.3774C190.659 10.5838 191.423 10.7903 192.612 10.9968C193.814 11.1903 194.656 11.4613 195.139 11.8097C195.636 12.158 195.883 12.829 195.883 13.8226C195.883 14.8032 195.563 15.5258 194.923 15.9903C194.284 16.442 193.343 16.6677 192.102 16.6677C191.384 16.6677 190.457 16.5774 189.32 16.3968L188.752 16.3193L188.83 15.2935C190.293 15.5129 191.417 15.6226 192.2 15.6226C192.984 15.6226 193.591 15.4871 194.022 15.2161C194.466 14.9451 194.688 14.4871 194.688 13.8419C194.688 13.1967 194.505 12.7709 194.14 12.5645C193.787 12.3451 193.016 12.1452 191.828 11.9645C190.652 11.7838 189.823 11.5258 189.34 11.1903C188.857 10.8548 188.615 10.2226 188.615 9.29352C188.615 8.36449 188.948 7.68707 189.614 7.26126C190.28 6.83546 191.103 6.62256 192.083 6.62256C192.866 6.62256 193.846 6.70642 195.021 6.87417L195.55 6.95159L195.511 7.97739C194.113 7.77094 192.984 7.66772 192.122 7.66772ZM204.521 16.4742V6.79675H205.676V16.4742H204.521ZM204.521 4.37739V2.92578H205.676V4.37739H204.521ZM219.841 7.82255H216.569V12.6032C216.569 13.8548 216.661 14.6742 216.844 15.0613C217.027 15.4484 217.458 15.6419 218.137 15.6419L219.939 15.5064L220.018 16.4935C219.156 16.6225 218.496 16.6871 218.039 16.6871C217.047 16.6871 216.354 16.4483 215.962 15.971C215.583 15.4806 215.394 14.5516 215.394 13.1839V7.82255H213.944V6.79675H215.394V3.75804H216.569V6.79675H219.841V7.82255ZM227.006 6.79675H228.201L230.807 15.4677H231.512L234.137 6.79675H235.333L231.101 20.829H229.925L231.238 16.4742H229.886L227.006 6.79675Z"/>
</mask>
<path d="M107.228 6.79675H108.384V16.4742H107.228V15.758C106.222 16.3645 105.216 16.6677 104.211 16.6677C102.879 16.6677 101.997 16.3322 101.566 15.6613C101.148 14.9903 100.939 13.7193 100.939 11.8484V6.79675H102.095V11.829C102.095 13.3258 102.233 14.3323 102.507 14.8484C102.794 15.3645 103.408 15.6226 104.348 15.6226C104.805 15.6226 105.275 15.558 105.759 15.429C106.242 15.287 106.607 15.1452 106.856 15.0032L107.228 14.8097V6.79675ZM118.755 16.4742H117.599V6.79675H118.755V7.51288C119.852 6.90642 120.917 6.6032 121.949 6.6032C123.256 6.6032 124.123 6.94513 124.554 7.62901C124.999 8.31287 125.221 9.56449 125.221 11.3839V16.4742H124.045V11.4419C124.045 9.95808 123.902 8.95804 123.614 8.44191C123.327 7.91287 122.713 7.64836 121.772 7.64836C121.316 7.64836 120.832 7.71933 120.323 7.86127C119.827 7.99029 119.441 8.12578 119.167 8.26772L118.755 8.46127V16.4742ZM134.315 16.4742V6.79675H135.471V16.4742H134.315ZM134.315 4.37739V2.92578H135.471V4.37739H134.315ZM143.739 6.79675H145.032L147.481 15.4677H148.265L150.811 6.79675H152.026L149.166 16.4742H146.599L143.739 6.79675ZM166.599 15.5064L167.186 15.4484L167.225 16.3968C165.749 16.5774 164.502 16.6677 163.483 16.6677C162.073 16.6549 161.086 16.2419 160.525 15.429C159.963 14.6161 159.683 13.3645 159.683 11.6742C159.683 8.29352 161.028 6.6032 163.719 6.6032C165.012 6.6032 165.977 6.97094 166.618 7.70643C167.258 8.429 167.578 9.59029 167.578 11.1903L167.539 12.1193H160.878C160.878 13.3065 161.08 14.1903 161.485 14.771C161.902 15.3387 162.608 15.6226 163.601 15.6226C164.606 15.6226 165.605 15.5839 166.599 15.5064ZM160.878 11.1516H166.403C166.403 9.87418 166.187 8.96449 165.756 8.42256C165.338 7.88062 164.659 7.60965 163.719 7.60965C162.791 7.60965 162.086 7.89352 161.603 8.46127C161.119 9.0161 160.878 9.91289 160.878 11.1516ZM176.255 16.4742V6.79675H177.411V8.1903C177.894 7.85481 178.482 7.53223 179.175 7.22256C179.88 6.91288 180.526 6.70642 181.114 6.6032V7.76449C180.552 7.88062 179.964 8.06126 179.351 8.30643C178.737 8.53868 178.26 8.74513 177.921 8.92578L177.411 9.2161V16.4742H176.255ZM192.122 7.66772C190.581 7.66772 189.81 8.2161 189.81 9.31288C189.81 9.81611 189.979 10.171 190.319 10.3774C190.659 10.5838 191.423 10.7903 192.612 10.9968C193.814 11.1903 194.656 11.4613 195.139 11.8097C195.636 12.158 195.883 12.829 195.883 13.8226C195.883 14.8032 195.563 15.5258 194.923 15.9903C194.284 16.442 193.343 16.6677 192.102 16.6677C191.384 16.6677 190.457 16.5774 189.32 16.3968L188.752 16.3193L188.83 15.2935C190.293 15.5129 191.417 15.6226 192.2 15.6226C192.984 15.6226 193.591 15.4871 194.022 15.2161C194.466 14.9451 194.688 14.4871 194.688 13.8419C194.688 13.1967 194.505 12.7709 194.14 12.5645C193.787 12.3451 193.016 12.1452 191.828 11.9645C190.652 11.7838 189.823 11.5258 189.34 11.1903C188.857 10.8548 188.615 10.2226 188.615 9.29352C188.615 8.36449 188.948 7.68707 189.614 7.26126C190.28 6.83546 191.103 6.62256 192.083 6.62256C192.866 6.62256 193.846 6.70642 195.021 6.87417L195.55 6.95159L195.511 7.97739C194.113 7.77094 192.984 7.66772 192.122 7.66772ZM204.521 16.4742V6.79675H205.676V16.4742H204.521ZM204.521 4.37739V2.92578H205.676V4.37739H204.521ZM219.841 7.82255H216.569V12.6032C216.569 13.8548 216.661 14.6742 216.844 15.0613C217.027 15.4484 217.458 15.6419 218.137 15.6419L219.939 15.5064L220.018 16.4935C219.156 16.6225 218.496 16.6871 218.039 16.6871C217.047 16.6871 216.354 16.4483 215.962 15.971C215.583 15.4806 215.394 14.5516 215.394 13.1839V7.82255H213.944V6.79675H215.394V3.75804H216.569V6.79675H219.841V7.82255ZM227.006 6.79675H228.201L230.807 15.4677H231.512L234.137 6.79675H235.333L231.101 20.829H229.925L231.238 16.4742H229.886L227.006 6.79675Z" fill="white" stroke="white" stroke-width="2" mask="url(#path-4-inside-1_502_38)"/>
<path d="M105.636 49.0255H114.893V52.748H100.729V27.4255H105.136V48.5255V49.0255H105.636ZM143.441 43.3029H141.512V39.6577H148.27V52.3946C144.741 52.9419 141.88 53.2126 139.68 53.2126C135.598 53.2126 132.938 52.135 131.506 50.1333C130.056 48.0672 129.287 44.7111 129.287 39.9706C129.287 35.2295 130.096 31.9221 131.613 29.939C133.1 27.9958 135.673 26.9609 139.484 26.9609C141.876 26.9609 144.47 27.2279 147.265 27.7649L148.254 27.9549L148.134 31.1336C145.229 30.8343 142.814 30.6835 140.894 30.6835C138.899 30.6835 137.386 30.9117 136.453 31.4465C135.495 31.9961 134.835 32.9911 134.422 34.3259L134.422 34.3258L134.42 34.3324C134.032 35.647 133.851 37.8537 133.851 40.8996C133.851 43.9295 134.225 46.1713 135.063 47.5128C135.96 48.9495 137.756 49.5674 140.189 49.5674H140.201L140.213 49.5668L143.465 49.412L143.941 49.3893V48.9126V43.8029V43.3029H143.441ZM167.395 43.3029H165.466V39.6577H172.224V52.3946C168.695 52.9419 165.834 53.2126 163.634 53.2126C159.552 53.2126 156.892 52.1349 155.46 50.133C154.01 48.0669 153.241 44.7109 153.241 39.9706C153.241 35.2295 154.05 31.9221 155.567 29.939C157.054 27.9958 159.626 26.9609 163.438 26.9609C165.83 26.9609 168.424 27.2279 171.219 27.7649L172.208 27.9549L172.088 31.1336C169.183 30.8343 166.768 30.6835 164.848 30.6835C162.853 30.6835 161.34 30.9117 160.407 31.4465C159.448 31.9961 158.789 32.9911 158.376 34.3259L158.376 34.3258L158.374 34.3324C157.986 35.647 157.805 37.8537 157.805 40.8996C157.805 43.9295 158.179 46.1713 159.017 47.5128C159.914 48.9495 161.71 49.5674 164.143 49.5674H164.155L164.167 49.5668L167.419 49.412L167.895 49.3893V48.9126V43.8029V43.3029H167.395ZM183.238 49.1029H194.572V52.748H178.331V27.4255H194.572V31.0706H183.238H182.738V31.5706V37.7255V38.2255H183.238H192.221V41.7932H183.238H182.738V42.2932V48.6029V49.1029H183.238ZM204.935 49.1029H216.269V52.748H200.028V27.4255H216.269V31.0706H204.935H204.435V31.5706V37.7255V38.2255H204.935H213.918V41.7932H204.935H204.435V42.2932V48.6029V49.1029H204.935ZM225.965 31.148H219.334V27.4255H237.925V31.148H231.372H230.872V31.648V52.748H226.465V31.648V31.148H225.965ZM119.211 52.748V27.4255H123.619V52.748H119.211Z" fill="white" stroke="white"/>
</svg>
