<svg width="34" height="49" viewBox="0 0 34 49" fill="none" xmlns="http://www.w3.org/2000/svg">
<path fill-rule="evenodd" clip-rule="evenodd" d="M4.87501 2.49824C2.99157 2.56668 2.0597 3.11605 2.06251 4.3723V28.7492C2.06251 29.2667 1.64251 29.6867 1.12501 29.6867C0.607508 29.6867 0.187508 29.2667 0.187508 28.7492V4.37605C0.185633 3.33449 0.52032 2.49449 1.1822 1.85886C2.03063 1.04418 3.52782 0.55199 5.82751 0.624177H33C33.5175 0.624177 33.9375 1.04418 33.9375 1.56168V43.7492C33.9375 44.2667 33.5175 44.6867 33 44.6867H16.125V47.4992C16.125 47.8592 15.9188 48.1882 15.5934 48.3439C15.2691 48.5004 14.8828 48.4564 14.6016 48.2314L12.8438 46.8251L11.0859 48.2314C10.8047 48.4564 10.4184 48.5004 10.0941 48.3439C9.76876 48.1882 9.56251 47.8592 9.56251 47.4992V44.6867H4.87501C4.87501 44.6867 3.77251 44.6885 2.67095 44.2751C1.41001 43.8026 0.187508 42.8276 0.187508 40.9367V32.4992C0.187508 31.9817 0.607508 31.5617 1.12501 31.5617C1.64251 31.5617 2.06251 31.9817 2.06251 32.4992V37.871C2.26126 37.7651 2.46563 37.6751 2.67095 37.5982C3.77251 37.1848 4.87501 37.1867 4.87501 37.1867V2.49824ZM14.25 39.0617H11.4375V45.5482L12.2578 44.892C12.6009 44.6182 13.0866 44.6182 13.4297 44.892L14.25 45.5482V39.0617ZM32.0625 39.0617H16.125V42.8117H32.0625V39.0617ZM9.56251 39.0617H4.87501C4.87501 39.0617 4.10251 39.0635 3.32907 39.3532C2.71501 39.5839 2.06251 40.0151 2.06251 40.9367C2.06251 41.8582 2.71501 42.2895 3.32907 42.5201C4.10251 42.8098 4.87501 42.8117 4.87501 42.8117H9.56251V39.0617ZM32.0625 37.1867V2.49918H6.75001V37.1867H32.0625ZM28.3125 6.24918C28.3125 5.73168 27.8925 5.31168 27.375 5.31168H10.5C9.98251 5.31168 9.56251 5.73168 9.56251 6.24918V19.3742C9.56251 19.8917 9.98251 20.3117 10.5 20.3117H27.375C27.8925 20.3117 28.3125 19.8917 28.3125 19.3742V6.24918ZM11.4375 7.18668V18.4367H26.4375V7.18668H11.4375ZM14.25 14.6867H23.625C24.1425 14.6867 24.5625 14.2667 24.5625 13.7492C24.5625 13.2317 24.1425 12.8117 23.625 12.8117H14.25C13.7325 12.8117 13.3125 13.2317 13.3125 13.7492C13.3125 14.2667 13.7325 14.6867 14.25 14.6867ZM14.25 10.9367H23.625C24.1425 10.9367 24.5625 10.5167 24.5625 9.99918C24.5625 9.48168 24.1425 9.06168 23.625 9.06168H14.25C13.7325 9.06168 13.3125 9.48168 13.3125 9.99918C13.3125 10.5167 13.7325 10.9367 14.25 10.9367Z" fill="black"/>
</svg>
