<svg width="243" height="264" viewBox="0 0 243 264" fill="none" xmlns="http://www.w3.org/2000/svg">
<g clip-path="url(#clip0_804_155)">
<path fill-rule="evenodd" clip-rule="evenodd" d="M130.819 114.56C130.177 115.282 129.646 116.147 129.117 117.012C126.062 121.421 122.445 126.491 120.939 131.777C119.007 138.766 120.203 144.044 123.202 147.939C127.428 153.418 135.761 155.973 143.954 155.195C152.097 154.456 160.094 150.616 164.009 144.171C166.722 139.794 167.561 134.103 165.167 127.218C162.498 119.399 156.331 114.722 148.78 112.253C145.893 111.256 142.95 110.76 139.842 110.39C141.872 108.145 143.925 105.881 146.011 103.592C153.041 96.3631 161.134 89.6956 169.433 84.0162C180.307 76.3634 192.039 70.8069 204.853 67.401C205.974 67.0006 206.675 65.7734 206.388 64.6166C206.099 63.4606 204.905 62.7725 203.675 63.0276C190.366 66.5821 178.128 72.2983 166.841 80.2688C158.419 86.2713 149.977 92.9785 142.826 100.53C139.893 103.698 137.023 106.816 134.3 110.053C127.487 110.002 120.745 111.043 115.485 112.555C80.6886 123.186 54.1412 164.433 39.4308 196.371C38.8995 197.467 39.3402 198.737 40.4527 199.26C41.5666 199.782 42.853 199.254 43.3842 198.158C57.6345 167.262 83.0554 127.106 116.761 116.853C120.725 115.648 125.694 114.819 130.819 114.56ZM136.412 114.63C135.082 116.108 133.871 117.725 132.774 119.484C130.057 123.633 126.581 128.135 125.148 132.906C123.677 138.166 124.397 142.204 126.619 145.089C130.175 149.705 136.953 151.388 143.534 150.698C150.276 150.117 157.04 147.223 160.203 141.813C162.28 138.384 162.853 134.042 161.048 128.773C158.786 122.247 153.564 118.452 147.415 116.514C143.899 115.31 140.149 114.745 136.412 114.63Z" fill="#02C2C5"/>
<path fill-rule="evenodd" clip-rule="evenodd" d="M40.4779 198.32C40.4409 197.201 40.6573 195.888 40.8752 194.573C41.2515 191.99 41.8256 189.484 41.771 187.69C41.5741 176.826 41.2035 163.802 37.6104 153.478C37.2523 152.376 35.9766 151.748 34.8307 152.169C33.6862 152.588 33.02 153.787 33.4877 155.034C36.8591 164.839 37.0899 177.284 37.3814 187.846C37.3694 189.691 36.6922 192.733 36.2797 195.345C35.9864 197.635 35.9524 199.727 36.5683 201.32C36.8557 202.246 38.132 203.333 40.4202 202.954C43.6083 202.344 50.7938 198.439 51.5246 198.108C58.914 194.734 65.5471 191.939 73.6864 194.415C74.8064 194.703 76.0207 194.001 76.478 192.962C76.8258 191.777 76.1224 190.48 75.0008 190.193C65.7575 187.417 58.0211 190.14 49.6418 194.044C49.1842 194.395 44.91 196.756 41.5864 197.929C41.1887 198.005 40.8714 198.248 40.4779 198.32Z" fill="#02C2C5"/>
</g>
<defs>
<clipPath id="clip0_804_155">
<rect width="190.239" height="219.79" fill="white" transform="matrix(0.96278 0.270285 0.270285 -0.96278 0.230469 212.304)"/>
</clipPath>
</defs>
</svg>
