<svg width="195" height="390" viewBox="0 0 195 390" fill="none" xmlns="http://www.w3.org/2000/svg">
<path d="M195 390C169.392 390 144.035 384.956 120.377 375.157C96.7182 365.357 75.2216 350.993 57.1142 332.886C39.0067 314.778 24.6431 293.282 14.8435 269.623C5.04381 245.965 -1.07624e-05 220.608 -8.52372e-06 195C-6.28502e-06 169.392 5.04382 144.035 14.8435 120.377C24.6432 96.7182 39.0068 75.2216 57.1142 57.1142C75.2216 39.0067 96.7183 24.6432 120.377 14.8435C144.035 5.04383 169.392 5.16567e-06 195 8.52372e-06L195 99.896C182.511 99.896 170.144 102.356 158.605 107.135C147.067 111.915 136.583 118.92 127.751 127.751C118.92 136.583 111.915 147.067 107.135 158.605C102.356 170.144 99.896 182.511 99.896 195C99.896 207.489 102.356 219.856 107.135 231.395C111.915 242.933 118.92 253.417 127.751 262.249C136.583 271.08 147.067 278.085 158.605 282.865C170.144 287.644 182.511 290.104 195 290.104L195 390Z" fill="#02C2C5" fill-opacity="0.3"/>
</svg>
