<svg width="130" height="115" viewBox="0 0 130 115" fill="none" xmlns="http://www.w3.org/2000/svg">
<path d="M64.3281 73.911C65.0458 71.5189 65.299 69.6532 66.1411 68.1185C67.688 65.2894 69.6667 62.705 71.3108 59.9353C74.1931 55.0914 76.8603 50.1161 79.812 45.3146C81.4808 42.5981 83.2517 39.8391 85.4885 37.6124C88.1119 35.0024 91.8104 34.9075 94.3966 36.6491C97.252 38.5743 98.2383 42.2644 96.468 46.0054C95.3374 48.4026 93.9399 50.8464 92.0855 52.6967C86.1877 58.5769 80.0575 64.2293 73.9314 69.8748C72.3634 71.3186 70.5843 72.6241 68.7047 73.6107C67.7255 74.1372 66.2998 73.8192 64.3281 73.911Z" fill="#F05C72"/>
<path d="M25.9853 70.0958C25.3669 70.3281 24.6165 70.8704 23.9602 70.7745C23.2832 70.666 22.3882 70.0717 22.1406 69.463C21.5399 67.9811 21.1563 66.3935 20.8675 64.8066C19.1847 55.5162 17.5175 46.2162 15.9534 36.903C15.6484 35.0775 15.5522 33.1128 15.8776 31.3006C16.4975 27.8672 19.469 25.327 22.5279 25.1558C25.5463 24.9885 28.5753 27.3628 29.6128 30.7507C29.8509 31.5156 30.0524 32.3248 30.0795 33.1228C30.4493 44.7658 29.8587 56.3272 27.0072 67.6894C26.8212 68.4621 26.3887 69.1701 25.9853 70.0958Z" fill="#F05C72"/>
<path d="M113.233 83.6053C112.174 84.3404 110.565 85.9305 108.634 86.7047C101.63 89.527 94.5244 92.096 87.4375 94.6958C86.4429 95.0604 85.3221 95.1478 84.2519 95.1993C82.8983 95.2779 81.3172 95.1985 81.023 93.5893C80.8651 92.74 81.552 91.6157 82.1039 90.7901C82.5259 90.1615 83.3365 89.7703 84.0095 89.3237C90.5435 85.0233 97.0459 80.6656 103.657 76.4886C105.438 75.3658 107.501 74.548 109.547 74.0536C111.432 73.604 113.329 74.1337 114.441 76.0423C115.466 77.8121 115.536 79.6176 114.549 81.4356C114.289 81.9246 113.988 82.3699 113.233 83.6053Z" fill="#F05C72"/>
</svg>
