<svg width="88" height="84" viewBox="0 0 88 84" fill="none" xmlns="http://www.w3.org/2000/svg">
<g clip-path="url(#clip0_804_123)">
<path fill-rule="evenodd" clip-rule="evenodd" d="M39.0828 30.3381C30.914 23.5911 24.295 15.5563 19.3211 6.19522C18.3263 4.33069 16.0116 3.61947 14.1368 4.61901C12.2812 5.61856 11.5732 7.94446 12.568 9.8282C18.0393 20.0735 25.2707 28.8771 34.2239 36.2778C35.8499 37.6233 38.2793 37.3925 39.6185 35.7587C40.9576 34.1055 40.7088 31.6836 39.0828 30.3381Z" fill="#02C2C5"/>
<path fill-rule="evenodd" clip-rule="evenodd" d="M34.7265 4.06197C35.1473 11.8276 35.5299 19.5933 36.0082 27.359C36.1422 29.4734 37.9596 31.088 40.0639 30.9536C42.1682 30.8189 43.7751 28.9928 43.6413 26.8785C43.163 19.132 42.7802 11.3856 42.3594 3.61989C42.2445 1.51125 40.4273 -0.113015 38.3228 0.00616111C36.2185 0.125337 34.5925 1.94179 34.7265 4.06197Z" fill="#02C2C5"/>
<path fill-rule="evenodd" clip-rule="evenodd" d="M63.1274 5.63744C58.23 13.0571 52.6825 19.9001 47.0965 26.82C45.7573 28.473 46.0057 30.8951 47.6511 32.2214C49.2962 33.567 51.7068 33.317 53.0268 31.6639C58.7659 24.571 64.4668 17.5165 69.5171 9.88543C70.6842 8.11701 70.1866 5.73356 68.4266 4.56103C66.6857 3.38848 64.2943 3.86902 63.1274 5.63744Z" fill="#02C2C5"/>
<path fill-rule="evenodd" clip-rule="evenodd" d="M82.0986 33.222C68.822 33.8177 54.7229 33.837 41.4463 32.9912C39.342 32.876 37.5246 34.4714 37.3906 36.605C37.2568 38.7193 38.8637 40.5455 40.968 40.6801C54.5123 41.5258 68.8986 41.5066 82.4428 40.9106C84.5474 40.8147 86.1923 39.0078 86.0966 36.8935C86.0011 34.7791 84.2029 33.1258 82.0986 33.222Z" fill="#02C2C5"/>
<path fill-rule="evenodd" clip-rule="evenodd" d="M34.2134 35.6627C42.4013 45.7349 50.8762 55.6151 58.471 66.1487C59.7145 67.8594 62.1059 68.2439 63.8276 66.9945C65.5302 65.7451 65.9127 63.3422 64.6693 61.6315C56.9788 50.9825 48.4084 40.987 40.125 30.7993C38.7859 29.1655 36.3753 28.9157 34.7491 30.2613C33.1039 31.6068 32.8742 34.0287 34.2134 35.6627Z" fill="#02C2C5"/>
<path fill-rule="evenodd" clip-rule="evenodd" d="M36.6931 38.5854C38.8357 49.0805 39.4288 59.1146 39.5817 69.7443C39.6008 71.8587 41.3417 73.5502 43.4462 73.5309C45.5697 73.4925 47.2531 71.7625 47.2148 69.6287C47.0617 58.4994 46.4305 48.0235 44.1922 37.0285C43.7522 34.9524 41.7436 33.6069 39.6583 34.049C37.5922 34.4718 36.2531 36.5095 36.6931 38.5854Z" fill="#02C2C5"/>
<path fill-rule="evenodd" clip-rule="evenodd" d="M37.0385 37.7402C30.8403 50.1961 27.6454 64.036 21.0072 76.2226C19.9933 78.068 20.6818 80.4131 22.5375 81.4317C24.3932 82.4506 26.708 81.7584 27.722 79.9131C34.3985 67.6495 37.6314 53.7329 43.8871 41.1809C44.8246 39.2781 44.0592 36.9714 42.1846 36.0103C40.2906 35.0684 37.9951 35.8374 37.0385 37.7402Z" fill="#02C2C5"/>
<path fill-rule="evenodd" clip-rule="evenodd" d="M40.4496 34.914C28.1105 37.1053 15.7905 38.1049 3.37489 39.5851C1.27055 39.8349 -0.221624 41.7379 0.0270723 43.8523C0.275768 45.9666 2.16986 47.466 4.2742 47.2163C16.8238 45.7361 29.2967 44.698 41.789 42.4875C43.855 42.1031 45.2516 40.1039 44.8881 38.028C44.5056 35.9328 42.5348 34.5296 40.4496 34.914Z" fill="#02C2C5"/>
<path fill-rule="evenodd" clip-rule="evenodd" d="M49.036 29.0705C46.4917 28.9551 44.0811 28.782 41.5943 28.4169C39.49 28.1094 37.5577 29.5703 37.2517 31.6654C36.9454 33.7606 38.3994 35.7213 40.4846 36.0288C43.2394 36.4324 45.8986 36.6248 48.6915 36.7399C50.796 36.8361 52.594 35.2023 52.6706 33.0685C52.7663 30.9541 51.1403 29.1667 49.036 29.0705Z" fill="#02C2C5"/>
</g>
<defs>
<clipPath id="clip0_804_123">
<rect width="88" height="84" fill="white"/>
</clipPath>
</defs>
</svg>
