<svg width="118" height="118" viewBox="0 0 118 118" fill="none" xmlns="http://www.w3.org/2000/svg">
<path d="M117.9 20.6333C111.513 14.2466 103.931 9.1805 95.5868 5.72409C87.2423 2.26767 78.2987 0.488678 69.2667 0.488682C60.2346 0.488681 51.291 2.26767 42.9465 5.72409C34.602 9.1805 27.02 14.2466 20.6333 20.6333C14.2467 27.0199 9.18057 34.6019 5.72415 42.9464C2.26774 51.291 0.488747 60.2346 0.488748 69.2666C0.488749 78.2987 2.26774 87.2423 5.72416 95.5868C9.18057 103.931 14.2467 111.513 20.6333 117.9L44.95 93.5833C41.7567 90.39 39.2236 86.5989 37.4954 82.4267C35.7672 78.2544 34.8777 73.7826 34.8777 69.2666C34.8777 64.7506 35.7672 60.2788 37.4954 56.1065C39.2236 51.9343 41.7567 48.1432 44.95 44.9499C48.1433 41.7566 51.9343 39.2236 56.1066 37.4953C60.2788 35.7671 64.7506 34.8776 69.2667 34.8776C73.7827 34.8776 78.2545 35.7671 82.4268 37.4953C86.599 39.2236 90.39 41.7566 93.5833 44.9499L117.9 20.6333Z" fill="#F05C72"/>
</svg>
