<svg width="195" height="390" viewBox="0 0 195 390" fill="none" xmlns="http://www.w3.org/2000/svg">
<path d="M-1.70474e-05 390C25.6077 390 50.9648 384.956 74.6233 375.157C98.2817 365.357 119.778 350.993 137.886 332.886C155.993 314.778 170.357 293.282 180.156 269.623C189.956 245.965 195 220.608 195 195C195 169.392 189.956 144.035 180.156 120.377C170.357 96.7182 155.993 75.2216 137.886 57.1142C119.778 39.0067 98.2817 24.6431 74.6233 14.8435C50.9648 5.04381 25.6077 -9.64307e-06 -1.70474e-05 -8.52372e-06L-1.26808e-05 99.896C12.4892 99.896 24.8562 102.356 36.3947 107.135C47.9333 111.915 58.4174 118.92 67.2487 127.751C76.0799 136.583 83.0852 147.067 87.8646 158.605C92.6441 170.144 95.104 182.511 95.104 195C95.104 207.489 92.6441 219.856 87.8646 231.395C83.0852 242.933 76.0799 253.417 67.2487 262.249C58.4174 271.08 47.9333 278.085 36.3947 282.865C24.8562 287.644 12.4892 290.104 -1.26808e-05 290.104L-1.70474e-05 390Z" fill="#02C2C5" fill-opacity="0.3"/>
</svg>
