<svg width="243" height="264" viewBox="0 0 243 264" fill="none" xmlns="http://www.w3.org/2000/svg">
<g clip-path="url(#clip0_717_207)">
<path fill-rule="evenodd" clip-rule="evenodd" d="M130.588 113.865C129.946 114.587 129.416 115.453 128.886 116.318C125.831 120.727 122.215 125.797 120.708 131.083C118.777 138.072 119.973 143.35 122.972 147.245C127.197 152.723 135.531 155.279 143.724 154.501C151.866 153.762 159.864 149.922 163.778 143.476C166.492 139.1 167.331 133.408 164.936 126.524C162.267 118.705 156.1 114.028 148.55 111.559C145.663 110.561 142.72 110.066 139.612 109.696C141.642 107.45 143.694 105.187 145.781 102.898C152.811 95.6688 160.904 89.0013 169.203 83.3219C180.077 75.6691 191.808 70.1126 204.622 66.7067C205.743 66.3063 206.445 65.0791 206.157 63.9222C205.869 62.7662 204.674 62.0781 203.444 62.3332C190.136 65.8878 177.897 71.604 166.611 79.5745C158.188 85.577 149.747 92.2842 142.596 99.8357C139.663 103.003 136.793 106.122 134.07 109.359C127.257 109.308 120.515 110.349 115.254 111.86C80.4581 122.491 53.9107 163.739 39.2003 195.677C38.6691 196.773 39.1098 198.042 40.2222 198.566C41.3362 199.088 42.6225 198.56 43.1538 197.464C57.404 166.568 82.8249 126.412 116.53 116.159C120.494 114.954 125.463 114.125 130.588 113.865ZM136.181 113.935C134.852 115.414 133.64 117.03 132.544 118.789C129.827 122.939 126.351 127.441 124.918 132.212C123.446 137.472 124.167 141.51 126.389 144.395C129.944 149.01 136.722 150.694 143.304 150.004C150.045 149.423 156.809 146.529 159.972 141.118C162.05 137.69 162.622 133.347 160.818 128.078C158.555 121.552 153.334 117.758 147.185 115.82C143.669 114.616 139.919 114.051 136.181 113.935Z" fill="white" fill-opacity="0.5"/>
<path fill-rule="evenodd" clip-rule="evenodd" d="M40.2474 197.626C40.2105 196.507 40.4268 195.194 40.6447 193.879C41.0211 191.295 41.5951 188.789 41.5406 186.996C41.3436 176.132 40.973 163.107 37.3799 152.784C37.0218 151.682 35.7462 151.054 34.6002 151.474C33.4557 151.893 32.7895 153.092 33.2572 154.34C36.6286 164.145 36.8594 176.59 37.151 187.152C37.139 188.997 36.4618 192.039 36.0493 194.65C35.7559 196.941 35.7219 199.032 36.3378 200.625C36.6253 201.552 37.9016 202.638 40.1898 202.26C43.3778 201.65 50.5634 197.745 51.2942 197.414C58.6835 194.04 65.3166 191.245 73.4559 193.721C74.5759 194.009 75.7902 193.306 76.2476 192.267C76.5954 191.083 75.8919 189.786 74.7704 189.499C65.527 186.723 57.7907 189.446 49.4113 193.35C48.9538 193.701 44.6795 196.062 41.3559 197.235C40.9582 197.311 40.6409 197.554 40.2474 197.626Z" fill="white" fill-opacity="0.5"/>
</g>
<defs>
<clipPath id="clip0_717_207">
<rect width="190.239" height="219.79" fill="white" transform="matrix(0.96278 0.270285 0.270285 -0.96278 0 211.609)"/>
</clipPath>
</defs>
</svg>
